<svg width="294" height="531" viewBox="0 0 294 531" fill="none" xmlns="http://www.w3.org/2000/svg">
<mask id="mask0_42_1192" style="mask-type:alpha" maskUnits="userSpaceOnUse" x="0" y="10" width="294" height="399">
<path d="M0 78.5C0 40.9446 30.4446 10.5 68 10.5H226C263.555 10.5 294 40.9446 294 78.5V340.5C294 378.055 263.555 408.5 226 408.5H68C30.4446 408.5 0 378.055 0 340.5V78.5Z" fill="url(#paint0_linear_42_1192)"/>
</mask>
<g mask="url(#mask0_42_1192)">
<g opacity="0.2">
<g opacity="0.63">
<path d="M158.43 51.9307C158.036 54.4473 157.666 56.9514 157.109 59.4116C156.614 61.8781 155.982 64.3132 155.174 66.6729C153.608 71.3987 151.385 75.8798 148.298 79.7018L150.139 80.4424C150.427 76.0869 150.509 71.6937 150.033 67.3319C149.601 62.9764 148.699 58.6209 146.921 54.6356C147.941 58.8656 148.386 63.1458 148.505 67.426C148.568 71.7125 148.411 75.999 148.067 80.2855L147.804 83.5679L149.908 81.0261C153.252 76.9844 155.5 72.1456 156.815 67.1625C158.105 62.1605 158.618 57.0268 158.443 51.9369L158.43 51.9307Z" fill="black"/>
</g>
<path d="M-83.3357 534.183C-84.7885 534.183 -86.1786 533.53 -87.0991 532.375L-93.1168 524.838L-89.8231 522.196L-83.8054 529.733C-83.6113 529.972 -83.3357 529.959 -83.2418 529.947C-83.0414 529.915 -82.9099 529.815 -82.8473 529.645C-80.5054 523.319 -83.0978 517.363 -90.7811 511.432L-88.2075 508.081C-79.0025 515.186 -75.8653 522.936 -78.8961 531.114C-79.4909 532.721 -80.8623 533.844 -82.5718 534.12C-82.8285 534.164 -83.0853 534.183 -83.342 534.183H-83.3357Z" fill="black"/>
<path d="M-83.9242 515.073L-86.6982 511.884C-84.8572 510.278 -83.9117 508.608 -83.7927 506.776C-83.6111 503.908 -85.4458 500.349 -89.4096 495.899L-86.2599 493.088C-81.4445 498.498 -79.3217 502.935 -79.5784 507.046C-79.7663 510.02 -81.2253 512.719 -83.9179 515.073H-83.9242Z" fill="black"/>
<path d="M77.7015 977.292C79.7742 974.123 82.4919 971.242 85.9234 969.303C89.3299 967.351 93.4314 966.516 97.3827 966.975C101.34 967.445 105.041 969.09 108.178 971.343C111.347 973.577 113.995 976.401 116.25 979.451C113.388 976.953 110.445 974.625 107.289 972.73C104.127 970.866 100.701 969.46 97.151 969.077C93.6067 968.631 89.9874 969.259 86.6873 970.765C83.3999 972.322 80.4254 974.637 77.7141 977.292H77.7015Z" fill="black"/>
<path d="M116.244 968.43C113.257 966.114 110.044 964.194 106.625 962.92C103.206 961.658 99.5932 961.031 95.9675 961.062C88.6662 961.05 81.5214 963.391 74.458 966.002C80.7574 961.897 88.159 958.997 95.9675 958.947C99.8437 958.96 103.757 959.738 107.264 961.407C110.789 963.033 113.826 965.531 116.244 968.43Z" fill="black"/>
<path d="M103.137 1033.79C100.345 1032.77 97.3264 1032.14 94.471 1032.73C91.5968 1033.28 89.2047 1035.13 87.4514 1037.4L87.0131 1037.97L86.5184 1037.41C84.9905 1035.66 83.043 1034.17 80.8952 1034.08C78.7474 1033.98 76.731 1035.29 75.0591 1036.83L74.195 1037.63L73.6565 1036.56C73.143 1035.55 72.5606 1034.57 71.8405 1033.79C71.1267 1033.02 70.275 1032.51 69.4109 1032.52C68.5405 1032.5 67.595 1032.98 66.7496 1033.64C65.898 1034.3 65.1277 1035.14 64.4076 1036.03L63.412 1037.26L62.7545 1035.85C62.0219 1034.28 62.2536 1032.82 62.4665 1031.53C62.7232 1030.22 63.1114 1028.99 63.5372 1027.78C64.4076 1025.38 65.4784 1023.1 66.543 1020.83L73.024 1007.35C77.3134 998.386 81.1832 989.185 83.4751 979.451C82.1601 989.398 78.6034 998.919 74.6458 1008.09L68.3652 1021.69C67.3382 1023.95 66.3551 1026.23 65.5035 1028.51C65.0839 1029.65 64.7019 1030.8 64.464 1031.94C64.226 1033.05 64.1572 1034.23 64.5141 1034.96L62.8609 1034.79C63.6562 1033.83 64.5204 1032.9 65.5598 1032.11C66.593 1031.34 67.883 1030.61 69.4297 1030.64C70.9889 1030.66 72.3164 1031.59 73.1806 1032.56C74.0823 1033.56 74.7022 1034.67 75.2532 1035.78L73.8506 1035.51C74.8024 1034.67 75.8669 1033.92 77.0629 1033.36C78.2527 1032.81 79.6178 1032.46 80.9829 1032.59C82.348 1032.71 83.6254 1033.26 84.6836 1034.01C85.7544 1034.75 86.6374 1035.68 87.4326 1036.65H86.4996C87.5015 1035.48 88.6474 1034.4 89.9812 1033.59C91.315 1032.78 92.8116 1032.26 94.3395 1032.06C97.4204 1031.64 100.451 1032.51 103.125 1033.8L103.137 1033.79Z" fill="black"/>
<path d="M74.4577 1038.2C73.6812 1032.83 74.9336 1027.44 76.0044 1022.23C77.1378 1016.99 78.5843 1011.85 79.9619 1006.71C81.3896 1001.57 82.7735 996.44 84.1198 991.287C84.7898 988.714 85.4473 986.135 86.0109 983.53C86.6872 980.951 87.1631 978.327 87.7893 975.723C87.639 978.396 87.3697 981.064 87.0316 983.718C86.6747 986.373 86.1862 989.009 85.704 991.645C84.7209 996.917 83.3809 1002.1 81.997 1007.26C80.5693 1012.41 79.0727 1017.53 77.5699 1022.63C76.8059 1025.18 76.1359 1027.74 75.5473 1030.33C74.9587 1032.91 74.4389 1035.52 74.4577 1038.2Z" fill="black"/>
<path d="M86.5748 1039.28C85.6981 1038.13 85.6105 1036.57 85.5854 1035.18C85.5729 1033.74 85.6856 1032.33 85.8171 1030.91C86.149 1028.09 86.5936 1025.3 87.0006 1022.52C87.8272 1016.94 88.7226 1011.41 89.3801 1005.84C90.1002 1000.27 90.5824 994.683 91.0145 989.085C91.2211 986.285 91.3839 983.48 91.4779 980.668C91.6595 977.857 91.6908 975.045 91.8285 972.215C92.1667 975.02 92.342 977.844 92.511 980.668C92.6238 983.493 92.6426 986.323 92.63 989.154C92.5799 994.815 92.1479 1000.48 91.4716 1006.09C90.7577 1011.71 89.7997 1017.3 88.5911 1022.81C87.99 1025.56 87.3763 1028.31 86.8378 1031.06C86.556 1032.44 86.293 1033.81 86.149 1035.2C86.0425 1036.57 85.911 1038.02 86.581 1039.29L86.5748 1039.28Z" fill="black"/>
<path d="M103.138 1031.58C102.875 1029.07 102.681 1026.56 102.318 1024.07C102.036 1021.57 101.704 1019.08 101.347 1016.6L99.1615 1001.67C98.4602 996.69 97.6962 991.714 97.07 986.718L96.1182 979.218C95.874 976.708 95.5484 974.204 95.3543 971.681C96.018 974.122 96.544 976.589 97.1389 979.042L98.6731 986.454C99.675 991.4 100.495 996.377 101.253 1001.37C101.954 1006.37 102.599 1011.38 102.956 1016.43C103.326 1021.47 103.545 1026.55 103.144 1031.6L103.138 1031.58Z" fill="black"/>
<path d="M100.445 969.917C102.392 974.794 104.171 979.708 106.012 984.597C107.871 989.473 109.675 994.368 111.629 999.195C113.538 1004.04 115.592 1008.82 117.74 1013.56C118.805 1015.94 119.957 1018.27 121.159 1020.58C122.299 1022.93 123.608 1025.19 124.86 1027.49C123.213 1025.45 121.716 1023.29 120.264 1021.1C118.867 1018.87 117.54 1016.6 116.287 1014.29C113.77 1009.67 111.635 1004.85 109.669 999.979C107.746 995.09 105.987 990.145 104.484 985.118C102.956 980.103 101.566 975.045 100.445 969.917Z" fill="black"/>
<path d="M103.958 969.918C106.682 976.137 109.011 982.419 111.685 988.545C114.321 994.695 117.239 1000.64 120.739 1006.45C115.899 1001.66 112.461 995.586 109.75 989.38C107.095 983.122 105.097 976.608 103.958 969.911V969.918Z" fill="black"/>
<path d="M77.1504 952.107C82.8174 951.241 88.3467 950.444 93.6693 948.818C99.0044 947.255 104.008 944.883 108.792 941.714C105.11 946.163 99.8122 949.182 94.2704 950.839C88.6973 952.471 82.8236 952.904 77.1504 952.1V952.107Z" fill="black"/>
<path d="M107.177 928.891C103.088 932.788 97.6522 935.292 92.0165 936.246C86.362 937.175 80.5197 936.642 75.2222 934.74C80.8453 934.991 86.312 935.092 91.6659 934.163C97.0323 933.303 102.136 931.408 107.177 928.891Z" fill="black"/>
<path d="M75.2216 940.502C78.5341 940.069 81.7214 940.1 84.9212 940.075C88.1211 940.113 91.2896 940.107 94.6084 940.502C91.5025 941.77 88.19 942.165 84.9087 942.184C81.6275 942.14 78.3337 941.726 75.2153 940.502H75.2216Z" fill="black"/>
<path d="M48.1766 774.697C50.1617 800.466 53.4304 826.16 58.6653 851.49C63.9003 876.801 71.1202 901.76 81.0766 925.653C70.7946 901.892 63.224 877.002 57.6321 851.709C52.0465 826.405 48.4146 800.686 46.0726 774.872L48.1766 774.697Z" fill="black"/>
<path d="M53.8254 733.89L67.8395 841.774C72.4357 877.729 82.173 912.881 94.6091 946.91C81.8473 913.007 71.7532 877.918 66.7937 841.919L51.7339 734.173L53.8254 733.89Z" fill="black"/>
<path d="M106.156 889.227C92.4547 838.58 88.2593 772.036 109.781 737.524L111.572 738.642C90.3883 772.613 94.6151 838.473 108.191 888.675L106.156 889.227Z" fill="black"/>
<path d="M113.338 752.285C110.996 757.501 108.435 762.477 106.237 767.617C103.989 772.739 102.13 777.967 100.439 783.42C100.476 777.684 102.048 772.023 104.302 766.77C106.613 761.53 109.594 756.597 113.338 752.279V752.285Z" fill="black"/>
<path d="M111.929 850.223C107.922 845.641 104.835 840.288 102.543 834.627C100.301 828.953 98.8546 822.903 98.8233 816.797C100.508 822.646 102.261 828.313 104.497 833.842C106.676 839.39 109.312 844.725 111.929 850.223Z" fill="black"/>
<path d="M49.2797 688.679C55.8484 699.668 59.5742 712.025 61.8911 724.439L61.8035 724.201C70.3885 739.778 76.1307 756.723 80.2886 773.888L93.4448 825.256L79.5434 774.095C77.3204 765.534 74.7718 757.099 71.6158 748.859C68.4911 740.625 64.8217 732.598 60.4571 724.966L60.3945 724.86L60.3695 724.728C57.9023 712.471 54.0324 700.365 47.4888 689.777L49.2859 688.672L49.2797 688.679Z" fill="black"/>
<path d="M83.569 745.187C89.0732 740.173 94.6149 735.29 97.9525 728.926L97.8648 729.221C98.5161 725.217 99.3364 721.238 100.445 717.297C100.476 721.395 100.219 725.449 99.7935 729.485L99.781 729.616L99.7058 729.779C98.1091 733.3 95.6794 736.369 92.8804 738.905C90.0876 741.465 86.9253 743.543 83.569 745.187Z" fill="black"/>
<path d="M73.1118 750.045C75.2721 751.193 77.0192 752.53 78.879 753.697C80.7137 754.921 82.5672 755.95 84.6462 757.237C82.204 757.601 79.7556 756.766 77.733 755.467C75.723 754.118 74.0385 752.317 73.1118 750.038V750.045Z" fill="black"/>
<path d="M68.735 738.353C70.7013 739.821 72.2605 741.44 73.8447 743.047L76.1617 745.507C76.9319 746.342 77.7146 747.158 78.4973 748.131C76.0489 747.685 73.995 746.204 72.3294 744.516C70.7013 742.771 69.3237 740.763 68.735 738.353Z" fill="black"/>
<path d="M94.6087 711.09C91.8159 713.638 88.6098 715.86 84.9279 717.159C81.2646 718.477 77.0817 718.69 73.2682 717.517C69.4422 716.343 66.1547 713.952 63.5497 711.122C60.9072 708.297 58.8721 705.027 57.1814 701.645C59.5672 704.594 61.9968 707.444 64.7019 709.942C67.4133 712.408 70.4817 714.485 73.8881 715.496C77.2696 716.563 80.9328 716.5 84.4457 715.59C87.9586 714.642 91.34 712.985 94.615 711.09H94.6087Z" fill="black"/>
<path d="M48.3653 669.041C50.8137 672.957 53.1745 676.955 55.1845 681.147C57.1883 685.34 58.8352 689.745 59.668 694.345L58.8289 694.032C62.4608 691.346 65.3538 687.687 67.3013 683.563C69.2675 679.434 70.3508 674.909 70.9081 670.34C70.5262 674.921 69.6182 679.509 67.7834 683.777C65.9675 688.044 63.1371 691.936 59.4739 694.866L58.8227 695.387L58.6348 694.546C57.6517 690.109 55.8859 685.879 53.7693 681.856C51.6466 677.827 49.1731 673.98 46.5995 670.196L48.3653 669.034V669.041Z" fill="black"/>
<path d="M59.8302 675.856C55.1776 675.856 50.2244 672.58 45.7346 666.373L47.4379 665.13C52.6791 672.373 58.4087 675.229 63.174 672.975C69.4797 669.982 73.4999 657.944 69.0351 640.692C51.8337 615.375 41.5955 576.451 37.7194 521.706C38.8841 494.374 43.2236 471.83 50.9884 452.682C57.9516 430.735 61.6899 410.903 62.3975 392.132L64.5078 392.213C63.7877 411.179 60.018 431.194 52.9671 453.398C45.265 472.402 40.9756 494.706 39.8234 521.674C43.6745 576.024 53.8313 614.653 70.8761 639.65L71.0264 639.976C76.0798 659.294 70.9638 671.614 64.0695 674.883C62.6981 675.536 61.2704 675.856 59.8176 675.856H59.8302Z" fill="black"/>
<path d="M31.9397 456.731L29.9985 455.903C40.0363 432.274 51.7022 405.946 62.0782 389.798L63.8503 390.94C53.562 406.95 41.9462 433.184 31.9397 456.725V456.731Z" fill="black"/>
<path d="M37.9954 519.948C33.6183 513.108 29.1473 496.432 24.9456 479.945L26.987 479.424C31.1449 495.748 35.5595 512.235 39.7675 518.812L37.9891 519.955L37.9954 519.948Z" fill="black"/>
<path d="M25.2961 593.114C28.7214 601.574 32.372 609.971 36.2669 618.236C38.2394 622.36 40.2495 626.464 42.4537 630.468C44.7142 634.422 46.9435 638.476 50.1746 641.734C46.8182 638.602 44.4137 634.61 41.9966 630.732C39.6296 626.803 37.4567 622.768 35.3214 618.707C31.0946 610.567 27.1246 602.308 23.3549 593.936L25.2961 593.114Z" fill="black"/>
<path d="M35.7528 637.862C38.5582 642.418 41.5263 646.906 44.6447 651.267C46.2227 653.439 47.832 655.585 49.554 657.644C51.3074 659.658 53.0795 661.723 55.3713 663.141C52.9856 661.874 51.0506 659.903 49.1595 657.995C47.2935 656.037 45.5339 653.991 43.8056 651.914C40.3804 647.734 37.1242 643.441 33.987 639.017L35.7528 637.856V637.862Z" fill="black"/>
<path d="M120.208 684.988C118.292 688.289 116.087 691.471 113.345 694.214C110.621 696.95 107.283 699.222 103.514 700.383L103.175 700.489L102.875 700.358C100.239 699.19 97.8277 697.577 95.7174 695.638C93.7262 693.592 91.904 691.364 90.5577 688.866C87.721 683.952 86.0929 678.505 84.9658 673.051C83.8637 667.572 83.3377 662.018 83.0434 656.476C82.7177 650.928 82.843 645.374 82.987 639.832V639.763L83.0058 639.694C92.9309 604.643 97.6712 568.23 98.8234 531.804C98.0594 568.242 93.7074 604.743 84.1267 640.008L84.1455 639.87C84.0641 645.386 83.9952 650.909 84.3772 656.401C84.7278 661.892 85.3102 667.377 86.4499 672.737C87.6146 678.078 89.2614 683.362 92.0229 688.013C93.3317 690.379 95.0725 692.444 96.9385 694.339C98.9173 696.121 101.153 697.577 103.589 698.625L102.95 698.594C106.363 697.502 109.4 695.406 111.929 692.808C114.472 690.209 116.557 687.147 118.373 683.94L120.208 684.988Z" fill="black"/>
<path d="M124.259 610.995C109.08 567.81 97.64 523.182 90.2447 478.352C81.1524 454.422 71.8911 426.186 72.5986 399.771L74.7089 399.827C74.0138 425.879 83.2 453.863 92.2735 477.806C99.7001 522.717 111.116 567.226 126.251 610.298L124.259 611.001V610.995Z" fill="black"/>
<path d="M125.423 594.651C122.819 547.845 118.617 499.99 105.661 467.054L105.586 466.715L104.596 445.126L106.7 445.032L107.684 466.445C120.702 499.658 124.916 547.631 127.527 594.538L125.423 594.657V594.651Z" fill="black"/>
<path d="M128.066 483.372C127.991 488.544 127.333 493.715 125.893 498.661C124.465 503.606 122.236 508.294 119.293 512.449C121.942 508.1 123.808 503.324 124.872 498.397C125.943 493.471 126.231 488.418 125.956 483.41L128.066 483.366V483.372Z" fill="black"/>
<path d="M91.2897 477.361L90.031 475.666C97.6956 469.955 102.599 465.035 105.46 460.19L107.276 461.263C104.271 466.359 99.1922 471.474 91.2959 477.361H91.2897Z" fill="black"/>
<path d="M86.4117 417.293C84.5394 432.223 85.1468 447.449 86.4367 462.523C84.4517 447.524 83.1179 432.324 84.3139 417.073L86.4117 417.293Z" fill="black"/>
<path d="M105.874 1030.39L103.989 1029.45C106.638 1024.12 109.637 1021.27 113.156 1020.73C116.657 1020.19 120.514 1022.1 124.628 1026.39L123.107 1027.86C119.493 1024.09 116.244 1022.4 113.469 1022.82C110.721 1023.24 108.159 1025.79 105.868 1030.39L105.874 1030.39Z" fill="black"/>
<path d="M62.2218 1033.9C61.5705 1029.29 59.1534 1027.07 54.6136 1026.87L54.7012 1024.76C60.2805 1025 63.5054 1027.98 64.3069 1033.6L62.2155 1033.9H62.2218Z" fill="black"/>
<path d="M89.9435 1025.15C92.9618 1023.02 97.4265 1023.02 100.445 1025.15C98.6226 1024.86 96.9256 1024.59 95.191 1024.6C93.4628 1024.58 91.7595 1024.84 89.9435 1025.15Z" fill="black"/>
<path d="M78.7222 1025.15C79.436 1024.17 80.6571 1023.56 81.9408 1023.55C83.2245 1023.56 84.4455 1024.17 85.1594 1025.15C83.9759 1024.86 82.9677 1024.59 81.9408 1024.6C80.9076 1024.58 79.9057 1024.86 78.7222 1025.15Z" fill="black"/>
<path d="M68.1273 1024.61C69.0353 1023.88 70.175 1023.51 71.3585 1023.53C72.5294 1023.55 73.8006 1024.1 74.3642 1025.15C73.2621 1024.77 72.3416 1024.6 71.3272 1024.58C70.319 1024.54 69.292 1024.66 68.1273 1024.61Z" fill="black"/>
<path d="M-95.865 424.108C-91.6257 422.187 -86.9669 421.114 -82.189 421.29C-79.8095 421.421 -77.4049 421.892 -75.2133 422.896C-73.0216 423.882 -71.0554 425.369 -69.659 427.252C-71.6503 426.022 -73.6791 425.068 -75.7956 424.44C-77.9122 423.825 -80.085 423.486 -82.2955 423.398C-86.7226 423.16 -91.2187 423.794 -95.8713 424.101L-95.865 424.108Z" fill="black"/>
<path d="M-94.1622 414.393C-89.8665 412.931 -85.1325 412.623 -80.5864 413.64C-78.3259 414.179 -76.1217 415.046 -74.168 416.307C-72.208 417.556 -70.4922 419.163 -69.2086 421.045C-71.1122 419.79 -72.9907 418.654 -74.9632 417.75C-76.9357 416.859 -78.9646 416.156 -81.0623 415.692C-85.2578 414.688 -89.6286 414.575 -94.1622 414.387V414.393Z" fill="black"/>
<path d="M-90.7492 405.035C-86.297 403.818 -81.3313 404.012 -76.9229 405.927C-74.7375 406.899 -72.7212 408.261 -71.0618 409.956C-69.3962 411.638 -68.0561 413.602 -67.1419 415.742C-68.7825 414.098 -70.3981 412.535 -72.1514 411.192C-73.9047 409.862 -75.7645 408.713 -77.762 407.866C-81.7383 406.077 -86.153 405.487 -90.7492 405.035Z" fill="black"/>
<path d="M-74.0991 472.942C-73.7422 471.191 -74.0992 469.239 -74.8005 467.394C-75.4893 465.53 -76.4724 463.735 -77.5244 461.972C-78.5827 460.202 -79.7286 458.507 -80.887 456.75C-82.0455 454.936 -82.9096 452.941 -83.3918 450.851C-84.3874 446.677 -83.6673 442.115 -81.3316 438.569C-78.9897 434.979 -75.2138 432.732 -71.3502 431.307C-75.1574 432.889 -78.783 435.299 -80.8808 438.851C-82.9848 442.365 -83.4607 446.715 -82.3648 450.587C-81.8263 452.533 -80.9371 454.365 -79.7849 456.01C-78.5889 457.673 -77.3303 459.367 -76.1781 461.124C-75.0259 462.882 -73.9176 464.702 -73.0785 466.71C-72.2331 468.693 -71.6445 470.965 -72.0202 473.344L-74.0929 472.942H-74.0991Z" fill="black"/>
<path d="M-70.6552 428.313C-75.5019 428.175 -80.3549 429.851 -83.7488 433.403C-87.1678 436.905 -89.2593 441.631 -90.5367 446.464C-91.8893 451.315 -92.3339 456.38 -92.3652 461.451L-92.6282 476.695L-92.8912 461.451C-93.0352 456.373 -92.7659 451.202 -91.5574 446.206C-90.4177 441.229 -88.4578 436.24 -84.8885 432.311C-83.1101 430.366 -80.8934 428.772 -78.4262 427.749C-75.959 426.719 -73.2852 426.261 -70.6427 426.205V428.32L-70.6552 428.313Z" fill="black"/>
<path d="M-100.712 485.6C-99.1778 477.31 -97.963 468.937 -97.6373 460.54C-97.3493 452.187 -97.8941 443.626 -100.95 435.995L-98.9837 435.223C-96.0844 443.469 -95.9529 452.181 -96.5854 460.597C-97.2616 469.05 -98.8334 477.372 -100.712 485.594V485.6Z" fill="black"/>
<path d="M-66.485 458.746C-67.0047 457.447 -67.4368 456.285 -68.0003 455.206C-68.5702 454.133 -69.1713 453.122 -69.7912 451.974C-70.4237 450.825 -71.4381 449.934 -72.6091 449.344C-73.7863 448.754 -75.07 448.409 -76.2473 447.863L-74.9197 447.392C-75.452 448.936 -75.859 450.461 -76.2911 451.986C-76.7169 453.524 -76.9924 455.093 -77.2742 456.831L-77.4808 456.863C-78.2761 455.262 -78.489 453.417 -78.3325 451.635C-78.1884 449.834 -77.5247 448.139 -76.6856 446.602L-76.1721 445.666L-75.3518 446.131C-74.1746 446.802 -73.1539 447.756 -72.1332 448.654C-71.1125 449.551 -70.048 450.323 -68.8707 451.12C-67.6872 451.911 -66.773 453.122 -66.3409 454.516C-65.8901 455.89 -65.8212 457.384 -66.2595 458.733H-66.4724L-66.485 458.746Z" fill="black"/>
<path d="M-64.6315 311.385C-64.0178 327.577 -63.9489 343.819 -65.3203 360.005C-66.7417 376.141 -69.5345 392.395 -75.9905 407.495L-77.9129 406.629C-71.2753 392 -68.1256 375.94 -66.3723 359.905C-64.6565 343.819 -64.3685 327.583 -64.6315 311.385Z" fill="black"/>
<path d="M-84.3627 404.484C-82.4779 400.267 -81.1002 395.779 -79.8666 391.254C-78.6393 386.723 -77.5685 382.129 -76.4539 377.547C-74.2435 368.378 -71.8076 359.228 -68.5326 350.385C-71.4757 359.347 -73.5547 368.548 -75.4207 377.78C-76.3662 382.399 -77.268 387.031 -78.3325 391.643C-79.4033 396.25 -80.6306 400.863 -82.4278 405.325L-84.3627 404.484Z" fill="black"/>
<path d="M-61.4624 410.741L-63.4787 410.132C-42.9898 341.623 -21.5303 301.796 6.09091 280.985L7.36208 282.673C-19.5077 302.919 -41.3742 343.613 -61.4561 410.741H-61.4624Z" fill="black"/>
<path d="M-39.014 348.075L-41.118 347.968C-39.3584 312.571 -22.6579 285.648 8.50124 267.956L9.54073 269.794C-20.9547 287.11 -37.292 313.45 -39.014 348.075Z" fill="black"/>
<path d="M-13.7847 286.332C-24.9685 279.874 -30.6042 266.299 -31.5121 243.624L-29.4019 243.543C-28.5252 265.427 -23.2276 278.443 -12.7265 284.506L-13.7784 286.339L-13.7847 286.332Z" fill="black"/>
<path d="M-33.1961 317.963L-35.3001 317.819C-33.791 295.439 -34.3546 274.577 -36.9783 255.818L-34.8868 255.523C-32.2443 274.427 -31.6682 295.439 -33.1961 317.963Z" fill="black"/>
<path d="M-24.6678 300.686L-26.7718 300.592C-25.8889 280.879 -22.1631 264.499 -15.0496 249.054C1.55071 199.499 24.845 143.799 71.4272 107.242L72.7296 108.905C26.5795 145.117 3.44808 200.465 -13.0958 249.832C-20.1342 265.133 -23.7974 281.256 -24.6678 300.686Z" fill="black"/>
<path d="M115.374 118.425C90.708 127.136 66.9003 138.1 44.6142 151.688C33.4618 158.453 22.5536 165.695 12.353 173.886C9.81689 175.95 7.23074 177.952 4.78234 180.118C3.49865 181.178 2.40908 182.27 0.968842 183.306C-0.621679 184.241 -2.88849 183.645 -3.77768 181.988C-5.55606 175.467 -6.16972 168.94 -5.8942 162.306C-5.3682 149.096 -0.440088 135.998 8.11992 125.787C12.3717 120.672 17.4689 116.253 23.1422 112.77C28.7403 109.08 35.4405 107.072 42.1283 106.701C55.2657 106.275 68.5096 106.595 81.4154 109.62C83.0309 110.009 84.6215 110.492 86.1243 110.812C87.7211 111.101 89.3241 111.377 90.9397 111.609C94.1583 112.08 97.3957 112.431 100.646 112.657C107.139 113.109 113.683 113.14 120.202 112.638L120.22 112.852C113.72 113.63 107.152 113.981 100.589 113.724C97.308 113.599 94.0331 113.348 90.7644 112.977C89.13 112.795 87.5019 112.569 85.8738 112.331C84.1643 112.03 82.6239 111.565 81.0459 111.226C74.7277 109.827 68.2404 109.193 61.753 108.904C55.272 108.634 48.722 108.609 42.2598 108.879C35.8977 109.249 29.6796 111.214 24.2944 114.659C18.7902 117.96 13.8182 122.172 9.64781 127.073C1.28192 136.87 -3.80272 149.422 -4.72948 162.375C-4.84846 163.995 -4.96744 165.614 -4.8923 167.239C-4.86099 168.865 -4.89229 170.497 -4.68565 172.11C-4.44769 175.304 -3.92796 178.693 -3.12018 181.63C-2.45016 182.929 -0.634199 183.438 0.643227 182.697C1.85803 181.837 3.12919 180.632 4.37531 179.622C6.85501 177.482 9.38483 175.398 11.9146 173.314C22.0902 165.068 32.6352 157.235 43.7188 150.2C65.961 136.261 90.2133 125.579 115.33 118.23L115.392 118.431L115.374 118.425Z" fill="black"/>
<path d="M9.96114 268.553L8.08884 267.586C25.1713 234.267 34.8083 208.04 38.4152 185.051L40.5004 185.377C36.8623 208.598 27.1563 235.026 9.96741 268.553H9.96114Z" fill="black"/>
<path d="M140.835 119.761L128.323 107.737L128.405 107.78C121.398 106.105 114.209 105.352 107.033 104.636C99.8505 103.946 92.6556 103.356 85.4732 102.54C71.1147 100.94 56.7562 98.4355 42.9487 93.8039L43.6437 91.8081C57.1506 96.6469 71.3463 99.4271 85.6235 101.316C92.7683 102.27 99.9444 103.011 107.121 103.845C114.284 104.705 121.485 105.609 128.492 107.435L128.536 107.448L140.835 119.761Z" fill="black"/>
<path d="M41.6392 107.467L39.6792 106.683C41.6956 101.612 46.5235 96.1013 55.334 88.8023L56.674 90.434C48.1453 97.4882 43.5115 102.741 41.6329 107.461L41.6392 107.467Z" fill="black"/>
<path d="M123.395 106.399L121.298 106.18C122.4 95.5419 114.441 76.8081 105.68 58.1371L107.59 57.2396C117.866 79.1302 124.491 95.8683 123.395 106.399Z" fill="black"/>
<path d="M103.243 59.6807C106.287 62.7873 108.046 66.7349 109.155 70.7139C110.251 74.718 110.645 78.8664 110.47 82.9709C110.276 87.0691 109.518 91.1798 107.833 94.9266C106.187 98.642 103.369 102.062 99.4989 103.456C103.3 101.893 105.892 98.416 107.345 94.7195C108.829 90.9853 109.393 86.9373 109.411 82.9458C109.411 78.948 108.848 74.9376 107.633 71.1595C106.425 67.4065 104.565 63.7915 101.778 61.1995L103.237 59.6744L103.243 59.6807Z" fill="black"/>
<path d="M77.5952 100.18C83.1244 95.5231 88.2842 90.3956 92.7427 84.6719C97.1949 78.9608 100.921 72.622 103.494 65.7875C101.259 72.7413 97.8148 79.3059 93.5943 85.3058C89.3675 91.3119 84.3768 96.7657 78.9978 101.768L77.6014 100.18H77.5952Z" fill="black"/>
<path d="M64.207 97.3493C68.7908 96.2572 73.124 93.6527 76.0232 89.6298C74.8648 91.8013 73.293 93.7971 71.3769 95.4414C69.467 97.0982 67.2315 98.3974 64.8645 99.3576L64.207 97.3493Z" fill="black"/>
<path d="M129.663 119.761C132.155 121.437 134.353 123.64 136.05 126.2C137.784 128.736 138.993 131.61 139.863 134.535C141.548 140.428 141.754 146.616 140.834 152.553C140.082 146.585 139.494 140.717 137.834 135.125C136.275 129.508 133.576 124.336 129.656 119.767L129.663 119.761Z" fill="black"/>
<path d="M132.756 146.39C136.219 150.532 138.999 155.321 140.815 160.499L141.373 162.093L139.682 161.666C134.109 160.273 128.248 160.084 122.405 160.16C119.481 160.21 116.544 160.323 113.595 160.448C110.652 160.58 107.696 160.699 104.728 160.775C107.621 160.135 110.533 159.582 113.47 159.155C116.4 158.729 119.356 158.396 122.33 158.233C125.305 158.045 128.298 158.057 131.291 158.264C134.284 158.503 137.284 158.967 140.189 159.89L139.056 161.063C137.559 155.992 135.374 151.11 132.75 146.384L132.756 146.39Z" fill="black"/>
<path d="M140.045 165.815C140.821 171.896 140.915 178.128 139.869 184.266C139.356 187.335 138.492 190.348 137.333 193.266C136.087 196.14 134.497 198.908 132.411 201.28C130.301 203.609 127.872 205.667 125.141 207.18C124.496 207.613 123.758 207.889 123.069 208.247C122.374 208.592 121.679 208.931 120.94 209.175L118.779 210.016L116.563 210.675C110.639 212.238 104.746 213.838 98.7288 215.094C92.7236 216.355 86.5243 217.033 80.3063 216.556C74.1133 216.104 67.8827 214.391 62.51 211.077C61.2263 210.167 59.8299 209.408 58.6526 208.366L55.1523 205.222C53.1359 202.837 51.0006 200.546 49.4226 197.86C47.6004 195.337 46.3543 192.488 44.9642 189.739C44.2065 188.389 43.7994 186.889 43.2296 185.465L41.6328 181.147L41.827 181.072C44.4757 186.588 47.1182 192.105 50.7752 196.918C52.4158 199.466 54.5699 201.575 56.58 203.778L59.9864 206.671C61.1136 207.644 62.4536 208.316 63.6684 209.157C68.7406 212.219 74.5203 214.002 80.4753 214.585C86.4304 215.163 92.5107 214.811 98.5284 213.958C104.534 213.054 110.526 211.742 116.35 209.979C122.173 208.29 127.396 204.801 131.065 200.151C134.797 195.525 137.07 189.852 138.273 183.959C139.55 178.059 139.832 171.946 139.826 165.827L140.038 165.815H140.045Z" fill="black"/>
<path d="M84.1764 234.348C68.9538 232.779 56.5302 223.139 46.2043 204.87L48.039 203.828C58.008 221.458 69.8993 230.752 84.3893 232.246L84.1764 234.348Z" fill="black"/>
<path d="M96.844 254.714C88.1024 249.385 83.4999 242.921 83.5375 236.024C83.5813 227.953 89.8432 219.976 101.634 212.966L102.711 214.786C91.7469 221.3 85.6916 228.844 85.6478 236.036C85.6164 242.149 89.8683 247.986 97.9461 252.906L96.8503 254.714H96.844Z" fill="black"/>
<path d="M89.6682 263.682H80.9954L53.7625 238.013L46.8243 235.93L47.4254 233.903L54.8458 236.137L81.8345 261.567H89.6682V263.682Z" fill="black"/>
<path d="M74.8028 286.275L74.233 286.068C69.7682 284.436 64.9153 279.786 59.004 273.309L60.5632 271.884C65.2847 277.056 70.2066 282.058 74.3895 283.859C79.1548 279.673 83.1374 273.742 86.5501 265.772L88.4913 266.606C84.8343 275.154 80.5136 281.461 75.2724 285.892L74.8028 286.288V286.275Z" fill="black"/>
<path d="M90.4198 344.554C82.9306 333.735 70.9266 322.162 59.0665 311.267L60.4942 309.71C72.4419 320.687 84.5462 332.366 92.1544 343.356L90.4198 344.561V344.554Z" fill="black"/>
<path d="M120.132 463.164L118.454 461.89C124.183 454.29 133.107 450.154 142.186 449.595V451.704C133.752 452.219 125.486 456.078 120.138 463.164H120.132Z" fill="black"/>
<path d="M118.31 460.616C105.761 428.696 96.8758 400.141 91.1524 373.317C89.7122 359.221 89.3678 348.835 92.3046 343.782C87.5644 326.467 84.0264 305.461 96.738 293.104C93.5131 292.759 90.9708 291.497 89.1486 289.345C85.3602 284.864 84.7528 276.73 87.2951 264.479L87.4704 264.078C97.5771 249.969 110.414 240.11 126.733 233.928L127.14 233.771L136.996 238.189C136.601 228.963 138.01 220.008 141.197 211.554L143.17 212.301C139.889 220.999 138.549 230.25 139.194 239.789L139.313 241.541L127.071 236.055C111.422 242.068 99.0612 251.582 89.3114 265.126C87.0008 276.416 87.483 284.104 90.7579 287.976C92.6553 290.217 95.4418 291.234 99.3993 291.077L102.624 290.945L100.101 292.96C88.9733 301.828 87.2325 317.467 94.465 343.669L94.5902 344.134L94.3272 344.535C91.2839 349.161 92.0667 361.518 93.2376 372.991C98.9234 399.582 107.771 428.031 120.276 459.838L118.317 460.61L118.31 460.616Z" fill="black"/>
<path d="M102.167 291.277C108.491 290.844 114.81 290.637 121.134 290.468L125.874 290.355C127.452 290.286 129.099 290.417 130.408 290.122C131.785 289.827 133.088 289.187 134.14 288.259C135.117 287.367 136.163 285.968 137.183 284.819C138.173 283.608 139.394 282.434 140.076 281.298C140.796 280.093 141.172 278.7 141.185 277.288C141.247 274.119 141.253 270.949 141.372 267.786L141.667 258.284C141.842 255.115 141.942 251.946 142.187 248.783C142.424 251.952 142.531 255.121 142.706 258.284L143.001 267.786C143.12 270.956 143.126 274.125 143.188 277.288C143.22 279.045 142.744 280.821 141.861 282.346C140.897 283.934 139.782 284.945 138.793 286.2C137.697 287.399 136.864 288.579 135.499 289.821C134.165 290.963 132.531 291.773 130.809 292.081C129.005 292.394 127.459 292.175 125.887 292.2L121.147 292.087C114.822 291.917 108.504 291.71 102.179 291.277H102.167Z" fill="black"/>
<path d="M96.8064 336.891C100.319 338.133 103.857 339.288 107.477 340.029C111.077 340.832 114.747 341.284 118.391 341.215C122.029 341.127 125.649 340.612 129.08 339.464C129.944 339.194 130.771 338.83 131.616 338.523C132.443 338.159 133.257 337.763 134.071 337.374C134.847 336.928 135.674 336.489 136.4 336.037C137.083 335.592 137.69 335.033 138.191 334.387C139.212 333.113 139.782 331.487 139.801 329.849L139.832 324.264C139.895 320.536 139.901 316.808 140.02 313.073L140.164 307.482C140.164 305.605 140.402 303.741 140.064 302.015C139.769 300.239 139.018 298.595 137.935 297.076C136.908 295.52 135.899 293.951 134.91 292.369C136.087 293.819 137.252 295.275 138.392 296.75C139.6 298.168 140.608 299.906 141.078 301.796C141.566 303.729 141.404 305.643 141.504 307.482L141.648 313.073C141.767 316.801 141.773 320.529 141.836 324.264L141.867 329.862C141.867 331.952 141.153 334.041 139.857 335.692C139.212 336.514 138.423 337.23 137.54 337.794C136.682 338.315 135.856 338.736 135.016 339.213C133.294 340.054 131.529 340.813 129.694 341.372C126.024 342.476 122.186 342.991 118.385 342.84C110.764 342.608 103.469 340.211 96.8127 336.897L96.8064 336.891Z" fill="black"/>
<path d="M142.181 446.332C141.748 438.932 141.542 431.533 141.373 424.133C141.179 416.734 141.154 409.335 141.129 401.935C141.154 394.536 141.179 387.137 141.373 379.737L141.667 368.635C141.842 364.932 141.943 361.236 142.187 357.533C142.425 361.236 142.531 364.932 142.707 368.635L143.001 379.737C143.195 387.137 143.22 394.536 143.245 401.935C143.22 409.335 143.189 416.734 143.001 424.133C142.832 431.533 142.625 438.932 142.193 446.332H142.181Z" fill="black"/>
<path d="M142.318 355.757C140.778 355.757 139.444 354.916 138.561 353.384C137.039 350.742 137.039 346.449 138.561 343.807C139.444 342.276 140.778 341.435 142.318 341.435C145.493 341.435 146.939 345.15 146.939 348.596C146.939 350.359 146.576 352.029 145.925 353.284C145.092 354.884 143.815 355.763 142.312 355.763L142.318 355.757ZM142.318 343.544C141.542 343.544 140.89 343.989 140.389 344.862C139.243 346.851 139.243 350.34 140.389 352.324C141.341 353.974 143.082 354.188 144.059 352.299C144.547 351.351 144.829 350.002 144.829 348.589C144.829 346.142 143.946 343.544 142.318 343.544Z" fill="black"/>
<path d="M71.1766 199.09C69.4609 199.09 67.4696 198.28 65.735 197.106C62.7043 195.048 60.4124 191.828 62.1407 189.28C62.8671 188.207 64.1258 187.674 65.6724 187.787C68.8472 188.019 72.9988 190.837 74.3952 193.705C75.0715 195.111 75.0465 196.472 74.3201 197.546C73.5812 198.638 72.4603 199.09 71.1766 199.09ZM65.2529 189.883C64.276 189.883 63.988 190.309 63.8878 190.46C63.0675 191.678 64.7832 193.899 66.9185 195.349C69.0539 196.799 71.7527 197.571 72.573 196.359C72.6795 196.196 73.0176 195.707 72.4916 194.627C71.4396 192.456 67.9205 190.065 65.5159 189.895C65.422 189.889 65.3343 189.883 65.2466 189.883H65.2529Z" fill="black"/>
<path d="M143.527 112.839C139.97 106.293 136.739 99.5843 133.621 92.8188C130.483 86.0658 127.584 79.2062 124.741 72.3277C121.948 65.4304 119.212 58.508 116.638 51.5229L112.775 41.0546L109.055 30.5235C110.69 33.8686 112.186 37.2827 113.733 40.6654L118.141 50.9204C121.072 57.7612 123.852 64.6522 126.689 71.5244L143.527 112.839Z" fill="black"/>
<path d="M128.629 51.9304C129.024 54.447 129.393 56.9511 129.951 59.4113C130.445 61.8778 131.078 64.3129 131.885 66.6726C133.451 71.3984 135.674 75.8795 138.761 79.7015L136.92 80.4421C136.632 76.0866 136.551 71.6934 137.026 67.3316C137.459 62.9761 138.36 58.6206 140.139 54.6353C139.118 58.8653 138.673 63.1455 138.554 67.4257C138.492 71.7122 138.648 75.9987 138.993 80.2852L139.256 83.5675L137.152 81.0258C133.808 76.9841 131.56 72.1453 130.245 67.1622C128.955 62.1602 128.441 57.0265 128.617 51.9366L128.629 51.9304Z" fill="black"/>
<path d="M35.2022 161.208C39.5229 164.936 43.1485 169.511 45.4216 174.639C42.5098 169.831 38.4771 165.915 33.9185 162.884L35.2022 161.208Z" fill="black"/>
<path d="M99.3926 6.18503C100.056 4.0512 100.232 1.74164 99.6681 -0.454954C99.1233 -2.65782 97.871 -4.65986 96.3118 -6.36692C97.9899 -4.78537 99.4239 -2.86493 100.169 -0.605581C100.933 1.64122 100.946 4.13278 100.407 6.45489L99.3864 6.18503H99.3926Z" fill="black"/>
<path d="M85.9545 -22.0823C86.4116 -22.6785 86.8687 -23.2873 87.5513 -23.7266C88.19 -24.1785 89.1292 -24.4295 89.9245 -24.1283C91.4586 -23.5069 92.2852 -22.2141 93.0304 -21.0091C94.4644 -18.5175 95.4224 -15.8377 96.3116 -13.1516C95.2659 -15.7749 94.1325 -18.392 92.5858 -20.7204C91.8156 -21.8438 90.8638 -22.9923 89.6991 -23.3626C88.5218 -23.6889 87.5199 -22.6032 86.8374 -21.4986L85.9545 -22.076V-22.0823Z" fill="black"/>
<path d="M370.394 534.183C370.138 534.183 369.881 534.164 369.624 534.12C367.921 533.844 366.543 532.721 365.948 531.114C362.918 522.936 366.055 515.192 375.26 508.081L377.834 511.433C370.157 517.357 367.558 523.319 369.9 529.645C369.962 529.815 370.094 529.915 370.288 529.947C370.401 529.965 370.664 529.978 370.852 529.733L376.869 522.196L380.163 524.838L374.145 532.375C373.225 533.524 371.835 534.183 370.382 534.183H370.394Z" fill="black"/>
<path d="M370.983 515.073C368.29 512.719 366.825 510.021 366.644 507.046C366.387 502.935 368.51 498.498 373.325 493.088L376.475 495.9C372.517 500.349 370.676 503.908 370.858 506.776C370.971 508.602 371.922 510.272 373.763 511.878L370.989 515.066L370.983 515.073Z" fill="black"/>
<path d="M209.358 977.292C207.285 974.123 204.567 971.242 201.136 969.303C197.729 967.351 193.628 966.516 189.677 966.975C185.719 967.445 182.018 969.09 178.881 971.343C175.713 973.577 173.064 976.401 170.809 979.451C173.671 976.953 176.614 974.625 179.77 972.73C182.933 970.866 186.358 969.46 189.908 969.077C193.452 968.631 197.072 969.259 200.372 970.765C203.659 972.322 206.634 974.638 209.345 977.292H209.358Z" fill="black"/>
<path d="M170.815 968.43C173.802 966.115 177.014 964.194 180.433 962.92C183.852 961.659 187.465 961.031 191.091 961.062C198.392 961.05 205.537 963.391 212.601 966.002C206.301 961.897 198.899 958.998 191.091 958.947C187.215 958.96 183.301 959.738 179.794 961.408C176.269 963.033 173.232 965.531 170.815 968.43Z" fill="black"/>
<path d="M183.922 1033.79C186.715 1032.77 189.733 1032.14 192.589 1032.73C195.463 1033.28 197.855 1035.13 199.608 1037.4L200.047 1037.97L200.541 1037.41C202.069 1035.66 204.017 1034.17 206.165 1034.08C208.312 1033.98 210.329 1035.29 212.001 1036.83L212.865 1037.63L213.403 1036.56C213.917 1035.55 214.499 1034.57 215.219 1033.79C215.933 1033.02 216.785 1032.51 217.649 1032.52C218.519 1032.5 219.465 1032.98 220.31 1033.64C221.162 1034.3 221.932 1035.14 222.652 1036.03L223.648 1037.26L224.305 1035.85C225.038 1034.28 224.806 1032.82 224.593 1031.53C224.337 1030.22 223.948 1028.99 223.523 1027.78C222.652 1025.38 221.581 1023.1 220.517 1020.83L214.036 1007.35C209.746 998.386 205.877 989.185 203.585 979.451C204.9 989.398 208.456 998.919 212.414 1008.09L218.695 1021.69C219.722 1023.95 220.705 1026.23 221.556 1028.51C221.976 1029.65 222.358 1030.8 222.596 1031.94C222.834 1033.05 222.903 1034.23 222.546 1034.96L224.199 1034.79C223.404 1033.83 222.539 1032.9 221.5 1032.11C220.467 1031.34 219.177 1030.61 217.63 1030.64C216.071 1030.66 214.743 1031.59 213.879 1032.56C212.978 1033.56 212.358 1034.67 211.807 1035.78L213.209 1035.51C212.257 1034.67 211.193 1033.92 209.997 1033.36C208.807 1032.81 207.442 1032.46 206.077 1032.59C204.712 1032.71 203.434 1033.26 202.376 1034.01C201.305 1034.76 200.422 1035.68 199.627 1036.65H200.56C199.558 1035.48 198.412 1034.4 197.079 1033.59C195.745 1032.78 194.248 1032.26 192.72 1032.06C189.64 1031.64 186.609 1032.51 183.935 1033.8L183.922 1033.79Z" fill="black"/>
<path d="M212.601 1038.2C213.378 1032.83 212.125 1027.44 211.055 1022.23C209.921 1016.99 208.475 1011.85 207.097 1006.71C205.669 1001.57 204.285 996.44 202.939 991.287C202.269 988.714 201.612 986.135 201.048 983.53C200.372 980.951 199.896 978.327 199.27 975.723C199.42 978.396 199.689 981.064 200.027 983.718C200.384 986.373 200.873 989.009 201.355 991.645C202.338 996.917 203.678 1002.1 205.062 1007.26C206.49 1012.41 207.986 1017.53 209.489 1022.63C210.253 1025.18 210.923 1027.74 211.512 1030.33C212.1 1032.91 212.62 1035.52 212.601 1038.2Z" fill="black"/>
<path d="M200.485 1039.28C201.362 1038.13 201.449 1036.57 201.474 1035.18C201.487 1033.74 201.374 1032.33 201.243 1030.91C200.911 1028.09 200.466 1025.3 200.059 1022.52C199.233 1016.94 198.337 1011.41 197.68 1005.84C196.96 1000.27 196.477 994.683 196.045 989.085C195.839 986.286 195.676 983.48 195.582 980.669C195.4 977.857 195.369 975.045 195.231 972.215C194.893 975.02 194.718 977.844 194.549 980.669C194.436 983.493 194.417 986.323 194.43 989.154C194.48 994.815 194.912 1000.48 195.588 1006.09C196.302 1011.71 197.26 1017.3 198.469 1022.81C199.07 1025.56 199.683 1028.31 200.222 1031.06C200.504 1032.44 200.767 1033.81 200.911 1035.2C201.017 1036.57 201.149 1038.02 200.479 1039.29L200.485 1039.28Z" fill="black"/>
<path d="M183.922 1031.59C184.185 1029.07 184.379 1026.56 184.742 1024.07C185.024 1021.57 185.356 1019.08 185.713 1016.6L187.898 1001.67C188.6 996.691 189.364 991.714 189.99 986.718L190.941 979.218C191.186 976.708 191.511 974.204 191.706 971.681C191.042 974.122 190.516 976.589 189.921 979.043L188.387 986.455C187.385 991.4 186.564 996.377 185.807 1001.37C185.105 1006.37 184.46 1011.38 184.104 1016.43C183.734 1021.47 183.515 1026.55 183.916 1031.6L183.922 1031.59Z" fill="black"/>
<path d="M186.615 969.918C184.667 974.794 182.889 979.708 181.048 984.597C179.188 989.474 177.385 994.369 175.431 999.195C173.521 1004.04 171.467 1008.82 169.319 1013.56C168.255 1015.94 167.103 1018.27 165.9 1020.58C164.761 1022.93 163.452 1025.19 162.2 1027.49C163.847 1025.45 165.343 1023.29 166.796 1021.1C168.192 1018.87 169.52 1016.6 170.772 1014.29C173.289 1009.67 175.425 1004.85 177.391 999.979C179.313 995.091 181.073 990.145 182.576 985.118C184.104 980.103 185.494 975.045 186.615 969.918Z" fill="black"/>
<path d="M183.095 969.918C180.371 976.137 178.042 982.42 175.368 988.545C172.732 994.695 169.814 1000.64 166.313 1006.45C171.154 1001.66 174.591 995.587 177.303 989.38C179.958 983.122 181.955 976.608 183.095 969.912V969.918Z" fill="black"/>
<path d="M209.909 952.105C204.242 951.239 198.713 950.442 193.39 948.817C188.055 947.254 183.052 944.882 178.268 941.712C181.95 946.162 187.247 949.181 192.789 950.838C198.362 952.469 204.236 952.902 209.909 952.099V952.105Z" fill="black"/>
<path d="M179.883 928.891C183.972 932.788 189.407 935.293 195.043 936.246C200.698 937.175 206.54 936.642 211.838 934.74C206.214 934.991 200.748 935.092 195.394 934.163C190.027 933.303 184.924 931.408 179.883 928.891Z" fill="black"/>
<path d="M211.837 940.502C208.524 940.069 205.337 940.101 202.137 940.076C198.937 940.113 195.769 940.107 192.45 940.502C195.556 941.77 198.869 942.166 202.15 942.184C205.431 942.14 208.725 941.726 211.843 940.502H211.837Z" fill="black"/>
<path d="M238.882 774.697C236.897 800.466 233.629 826.16 228.394 851.49C223.159 876.801 215.939 901.761 205.982 925.653C216.264 901.892 223.835 877.002 229.427 851.71C235.013 826.405 238.644 800.686 240.986 774.873L238.882 774.697Z" fill="black"/>
<path d="M233.234 733.89L219.22 841.774C214.624 877.729 204.886 912.881 192.45 946.91C205.212 913.007 215.306 877.918 220.266 841.919L235.326 734.173L233.234 733.89Z" fill="black"/>
<path d="M180.897 889.227L178.862 888.675C192.444 838.473 196.671 772.613 175.481 738.641L177.272 737.524C198.794 772.036 194.604 838.586 180.897 889.227Z" fill="black"/>
<path d="M173.715 752.285C176.057 757.501 178.618 762.477 180.816 767.617C183.064 772.739 184.924 777.967 186.615 783.42C186.577 777.684 185.005 772.023 182.751 766.77C180.44 761.53 177.46 756.597 173.715 752.279V752.285Z" fill="black"/>
<path d="M175.124 850.223C179.132 845.641 182.219 840.288 184.511 834.627C186.753 828.953 188.199 822.904 188.23 816.797C186.546 822.646 184.793 828.313 182.557 833.842C180.378 839.39 177.742 844.725 175.124 850.223Z" fill="black"/>
<path d="M237.774 688.679C231.205 699.668 227.479 712.025 225.162 724.439L225.25 724.201C216.665 739.778 210.923 756.723 206.765 773.888L193.609 825.257L207.51 774.095C209.733 765.534 212.282 757.099 215.438 748.859C218.562 740.625 222.232 732.598 226.596 724.966L226.659 724.86L226.684 724.728C229.151 712.471 233.021 700.365 239.565 689.777L237.768 688.673L237.774 688.679Z" fill="black"/>
<path d="M203.49 745.187C197.986 740.173 192.444 735.29 189.106 728.926L189.194 729.221C188.543 725.217 187.723 721.238 186.614 717.297C186.583 721.395 186.84 725.449 187.265 729.485L187.278 729.617L187.353 729.78C188.95 733.301 191.38 736.37 194.179 738.905C196.971 741.466 200.134 743.543 203.49 745.187Z" fill="black"/>
<path d="M213.947 750.045C211.787 751.193 210.039 752.53 208.18 753.697C206.345 754.921 204.491 755.95 202.412 757.237C204.855 757.601 207.303 756.766 209.326 755.467C211.336 754.118 213.02 752.317 213.947 750.039V750.045Z" fill="black"/>
<path d="M218.325 738.352C216.358 739.821 214.799 741.44 213.215 743.047L210.898 745.507C210.128 746.342 209.345 747.157 208.562 748.13C211.011 747.685 213.065 746.203 214.73 744.515C216.358 742.771 217.736 740.762 218.325 738.352Z" fill="black"/>
<path d="M192.451 711.09C195.244 713.638 198.45 715.86 202.132 717.159C205.795 718.477 209.978 718.69 213.792 717.517C217.618 716.343 220.905 713.952 223.51 711.122C226.153 708.297 228.188 705.027 229.878 701.645C227.493 704.594 225.063 707.444 222.358 709.942C219.647 712.408 216.578 714.485 213.172 715.496C209.79 716.563 206.127 716.5 202.614 715.59C199.101 714.642 195.72 712.985 192.445 711.09H192.451Z" fill="black"/>
<path d="M238.689 669.041C236.24 672.957 233.879 676.955 231.869 681.147C229.866 685.34 228.219 689.745 227.386 694.346L228.225 694.032C224.593 691.346 221.7 687.687 219.753 683.563C217.786 679.434 216.703 674.909 216.146 670.34C216.528 674.921 217.436 679.509 219.27 683.777C221.086 688.045 223.917 691.936 227.58 694.867L228.231 695.387L228.419 694.546C229.402 690.109 231.168 685.879 233.285 681.856C235.407 677.827 237.881 673.98 240.454 670.196L238.689 669.035V669.041Z" fill="black"/>
<path d="M227.229 675.856C225.776 675.856 224.348 675.536 222.977 674.884C216.083 671.614 210.967 659.294 216.026 639.977L216.177 639.65C233.221 614.653 243.378 576.018 247.236 521.555C246.077 494.707 241.788 472.396 234.117 453.474C227.041 431.181 223.265 411.167 222.551 392.214L224.661 392.132C225.369 410.891 229.114 430.723 236.102 452.758C243.835 471.831 248.175 494.368 249.346 521.587C245.47 576.445 235.225 615.369 218.03 640.692C213.565 657.945 217.585 669.982 223.891 672.976C228.65 675.229 234.386 672.373 239.634 665.131L241.337 666.373C236.847 672.58 231.894 675.856 227.241 675.856H227.229Z" fill="black"/>
<path d="M255.119 456.731C245.119 433.19 233.503 406.963 223.209 390.946L224.981 389.804C235.363 405.959 247.023 432.286 257.06 455.909L255.119 456.737V456.731Z" fill="black"/>
<path d="M249.064 519.949L247.286 518.806C251.494 512.235 255.908 495.748 260.066 479.418L262.108 479.939C257.906 496.433 253.435 513.108 249.058 519.942L249.064 519.949Z" fill="black"/>
<path d="M261.757 593.115C258.332 601.575 254.681 609.972 250.786 618.238C248.814 622.361 246.804 626.465 244.6 630.47C242.339 634.423 240.11 638.478 236.879 641.735C240.235 638.603 242.64 634.612 245.057 630.733C247.424 626.804 249.597 622.769 251.732 618.708C255.959 610.568 259.929 602.309 263.698 593.937L261.757 593.115Z" fill="black"/>
<path d="M251.3 637.862C248.495 642.419 245.526 646.906 242.408 651.268C240.83 653.439 239.221 655.586 237.499 657.644C235.745 659.659 233.973 661.723 231.681 663.142C234.067 661.874 236.002 659.904 237.893 657.996C239.759 656.038 241.519 653.991 243.247 651.914C246.672 647.734 249.929 643.442 253.066 639.017L251.3 637.856V637.862Z" fill="black"/>
<path d="M166.846 684.988C168.762 688.289 170.966 691.471 173.709 694.214C176.433 696.95 179.77 699.222 183.54 700.383L183.878 700.49L184.179 700.358C186.815 699.19 189.226 697.578 191.336 695.638C193.327 693.592 195.15 691.364 196.496 688.866C199.332 683.952 200.961 678.505 202.088 673.051C203.19 667.572 203.716 662.018 204.01 656.476C204.336 650.928 204.21 645.374 204.066 639.832V639.763L204.048 639.694C194.123 604.643 189.382 568.23 188.23 531.804C188.994 568.242 193.346 604.743 202.927 640.008L202.908 639.87C202.989 645.387 203.058 650.909 202.676 656.401C202.326 661.892 201.743 667.378 200.604 672.737C199.439 678.078 197.792 683.362 195.031 688.013C193.722 690.379 191.981 692.444 190.115 694.339C188.136 696.122 185.901 697.577 183.465 698.626L184.104 698.594C180.691 697.502 177.654 695.406 175.124 692.808C172.582 690.209 170.496 687.147 168.681 683.94L166.846 684.988Z" fill="black"/>
<path d="M162.794 610.995L160.803 610.292C175.938 567.239 187.347 522.73 194.73 478.007C203.86 453.863 213.046 425.873 212.345 399.827L214.455 399.771C215.162 426.186 205.901 454.422 196.759 478.559C189.413 523.2 177.967 567.829 162.794 611.001V610.995Z" fill="black"/>
<path d="M161.636 594.652L159.532 594.533C162.143 547.632 166.357 499.652 179.376 466.44L180.359 445.026L182.463 445.12L181.405 467.049C168.449 499.991 164.247 547.839 161.642 594.645L161.636 594.652Z" fill="black"/>
<path d="M158.987 483.373C159.062 488.544 159.72 493.715 161.16 498.661C162.588 503.606 164.817 508.294 167.76 512.449C165.111 508.1 163.245 503.324 162.18 498.397C161.11 493.471 160.822 488.418 161.097 483.41L158.987 483.366V483.373Z" fill="black"/>
<path d="M195.769 477.361C187.866 471.474 182.788 466.359 179.782 461.263L181.598 460.19C184.454 465.035 189.357 469.955 197.028 475.666L195.769 477.361Z" fill="black"/>
<path d="M200.648 417.293C202.52 432.223 201.912 447.449 200.623 462.524C202.608 447.524 203.941 432.324 202.745 417.073L200.648 417.293Z" fill="black"/>
<path d="M181.179 1030.39C178.887 1025.79 176.332 1023.24 173.577 1022.82C170.791 1022.38 167.553 1024.1 163.94 1027.87L162.418 1026.4C166.595 1022.05 170.359 1020.2 173.897 1020.73C177.416 1021.27 180.415 1024.12 183.064 1029.46L181.179 1030.4V1030.39Z" fill="black"/>
<path d="M224.837 1033.9L222.746 1033.6C223.541 1027.98 226.772 1025 232.345 1024.76L232.433 1026.87C227.893 1027.07 225.476 1029.3 224.831 1033.9H224.837Z" fill="black"/>
<path d="M197.115 1025.15C194.097 1023.02 189.632 1023.03 186.614 1025.15C188.436 1024.86 190.133 1024.59 191.867 1024.6C193.596 1024.58 195.299 1024.85 197.115 1025.15Z" fill="black"/>
<path d="M208.337 1025.15C207.623 1024.17 206.402 1023.56 205.118 1023.55C203.834 1023.56 202.613 1024.17 201.899 1025.15C203.083 1024.86 204.091 1024.59 205.118 1024.6C206.151 1024.58 207.153 1024.86 208.337 1025.15Z" fill="black"/>
<path d="M218.925 1024.61C218.017 1023.88 216.878 1023.51 215.694 1023.53C214.523 1023.55 213.252 1024.1 212.688 1025.15C213.791 1024.77 214.711 1024.6 215.725 1024.58C216.734 1024.54 217.761 1024.66 218.925 1024.61Z" fill="black"/>
<path d="M382.925 424.108C378.686 422.187 374.027 421.114 369.249 421.29C366.87 421.421 364.465 421.892 362.273 422.896C360.082 423.882 358.115 425.369 356.719 427.252C358.71 426.022 360.739 425.068 362.856 424.44C364.972 423.825 367.145 423.486 369.355 423.398C373.783 423.16 378.279 423.794 382.931 424.101L382.925 424.108Z" fill="black"/>
<path d="M381.216 414.393C376.92 412.931 372.186 412.623 367.64 413.64C365.38 414.18 363.176 415.046 361.222 416.307C359.262 417.556 357.546 419.163 356.262 421.045C358.166 419.79 360.045 418.654 362.017 417.751C363.99 416.859 366.018 416.156 368.116 415.692C372.312 414.688 376.682 414.575 381.216 414.387V414.393Z" fill="black"/>
<path d="M377.803 405.035C373.351 403.818 368.385 404.012 363.977 405.927C361.791 406.899 359.775 408.261 358.115 409.956C356.45 411.638 355.11 413.602 354.196 415.742C355.836 414.098 357.452 412.535 359.205 411.192C360.958 409.862 362.818 408.713 364.816 407.866C368.792 406.077 373.207 405.487 377.803 405.035Z" fill="black"/>
<path d="M361.159 472.942C360.802 471.191 361.159 469.239 361.86 467.394C362.549 465.53 363.532 463.735 364.584 461.972C365.642 460.202 366.788 458.507 367.946 456.75C369.105 454.936 369.969 452.941 370.451 450.851C371.447 446.677 370.727 442.115 368.391 438.569C366.049 434.979 362.273 432.732 358.41 431.307C362.217 432.889 365.842 435.299 367.94 438.851C370.044 442.366 370.52 446.715 369.424 450.587C368.886 452.533 367.996 454.365 366.844 456.01C365.648 457.673 364.39 459.367 363.237 461.125C362.085 462.882 360.977 464.702 360.138 466.71C359.292 468.693 358.704 470.965 359.08 473.344L361.152 472.942H361.159Z" fill="black"/>
<path d="M357.714 428.314C362.561 428.175 367.414 429.851 370.808 433.403C374.227 436.905 376.318 441.631 377.596 446.464C378.948 451.315 379.393 456.38 379.424 461.451L379.687 476.695L379.95 461.451C380.094 456.373 379.825 451.202 378.617 446.206C377.477 441.229 375.517 436.24 371.948 432.311C370.169 430.366 367.953 428.772 365.485 427.749C363.018 426.719 360.344 426.261 357.702 426.205V428.32L357.714 428.314Z" fill="black"/>
<path d="M387.771 485.6C386.237 477.31 385.022 468.938 384.697 460.54C384.408 452.187 384.953 443.626 388.009 435.995L386.043 435.223C383.144 443.47 383.012 452.181 383.645 460.597C384.321 469.05 385.893 477.372 387.771 485.594V485.6Z" fill="black"/>
<path d="M353.538 458.746C354.058 457.447 354.49 456.286 355.053 455.206C355.623 454.133 356.224 453.122 356.844 451.974C357.477 450.825 358.491 449.934 359.662 449.344C360.839 448.754 362.123 448.409 363.3 447.863L361.973 447.392C362.505 448.936 362.912 450.461 363.344 451.987C363.77 453.524 364.045 455.093 364.327 456.832L364.534 456.863C365.329 455.263 365.542 453.417 365.385 451.635C365.241 449.834 364.578 448.139 363.739 446.602L363.225 445.667L362.405 446.131C361.228 446.803 360.207 447.757 359.186 448.654C358.165 449.551 357.101 450.323 355.924 451.12C354.74 451.911 353.826 453.122 353.394 454.516C352.943 455.89 352.874 457.384 353.312 458.733H353.525L353.538 458.746Z" fill="black"/>
<path d="M351.684 311.385C351.07 327.577 351.001 343.82 352.373 360.005C353.794 376.141 356.587 392.396 363.043 407.496L364.965 406.629C358.328 392 355.178 375.94 353.425 359.905C351.709 343.819 351.421 327.584 351.684 311.385Z" fill="black"/>
<path d="M371.422 404.484C369.537 400.267 368.16 395.779 366.926 391.254C365.699 386.723 364.628 382.129 363.513 377.548C361.303 368.378 358.867 359.228 355.592 350.385C358.535 359.347 360.614 368.548 362.48 377.78C363.426 382.399 364.327 387.031 365.392 391.643C366.463 396.25 367.69 400.863 369.487 405.325L371.422 404.484Z" fill="black"/>
<path d="M348.522 410.741C328.44 343.613 306.574 302.92 279.704 282.673L280.975 280.985C308.596 301.796 330.056 341.63 350.545 410.132L348.528 410.741H348.522Z" fill="black"/>
<path d="M326.073 348.075C324.351 313.45 308.014 287.11 277.518 269.795L278.558 267.956C309.723 285.654 326.417 312.572 328.177 347.968L326.073 348.075Z" fill="black"/>
<path d="M300.844 286.332L299.792 284.499C310.293 278.437 315.59 265.42 316.467 243.536L318.577 243.617C317.669 266.299 312.034 279.867 300.85 286.325L300.844 286.332Z" fill="black"/>
<path d="M320.256 317.963C318.734 295.439 319.304 274.427 321.946 255.523L324.038 255.818C321.414 274.577 320.844 295.439 322.36 317.819L320.256 317.963Z" fill="black"/>
<path d="M311.721 300.685C310.85 281.254 307.187 265.131 300.186 249.937C283.605 200.464 260.473 145.116 214.323 108.904L215.626 107.24C262.214 143.798 285.508 199.497 302.146 249.159C309.216 264.504 312.942 280.878 313.825 300.591L311.721 300.685Z" fill="black"/>
<path d="M171.679 118.425C196.345 127.136 220.153 138.1 242.439 151.688C253.591 158.453 264.499 165.696 274.7 173.886C277.236 175.95 279.822 177.952 282.271 180.118C283.554 181.178 284.644 182.27 286.084 183.306C287.675 184.241 289.941 183.645 290.831 181.988C292.609 175.467 293.223 168.94 292.947 162.307C292.421 149.096 287.493 135.998 278.933 125.787C274.681 120.672 269.584 116.253 263.911 112.77C258.313 109.08 251.612 107.072 244.925 106.701C231.787 106.275 218.543 106.595 205.638 109.62C204.022 110.009 202.431 110.492 200.929 110.812C199.332 111.101 197.729 111.377 196.113 111.609C192.895 112.08 189.657 112.431 186.407 112.657C179.914 113.109 173.37 113.141 166.851 112.638L166.833 112.852C173.332 113.63 179.901 113.981 186.464 113.724C189.745 113.599 193.02 113.348 196.289 112.977C197.923 112.795 199.551 112.569 201.179 112.331C202.889 112.03 204.429 111.565 206.007 111.226C212.325 109.827 218.813 109.193 225.3 108.904C231.781 108.634 238.331 108.609 244.793 108.879C251.155 109.249 257.373 111.214 262.759 114.659C268.263 117.96 273.235 122.172 277.405 127.073C285.771 136.87 290.856 149.422 291.782 162.376C291.901 163.995 292.02 165.614 291.945 167.239C291.914 168.865 291.945 170.497 291.739 172.11C291.501 175.304 290.981 178.693 290.173 181.63C289.503 182.929 287.687 183.438 286.41 182.697C285.195 181.837 283.924 180.632 282.678 179.622C280.198 177.482 277.668 175.398 275.138 173.315C264.963 165.068 254.418 157.236 243.334 150.2C221.092 136.261 196.84 125.579 171.723 118.23L171.661 118.431L171.679 118.425Z" fill="black"/>
<path d="M277.098 268.553C259.903 235.026 250.203 208.598 246.565 185.377L248.65 185.051C252.251 208.04 261.888 234.267 278.977 267.586L277.105 268.553H277.098Z" fill="black"/>
<path d="M146.219 119.761L158.73 107.737L158.649 107.781C165.656 106.105 172.845 105.352 180.021 104.636C187.203 103.946 194.398 103.356 201.58 102.54C215.939 100.94 230.297 98.4355 244.105 93.8039L243.41 91.8081C229.903 96.6469 215.707 99.4272 201.43 101.316C194.285 102.27 187.109 103.011 179.933 103.845C172.769 104.705 165.568 105.609 158.561 107.435L158.517 107.448L146.219 119.761Z" fill="black"/>
<path d="M245.413 107.467C243.541 102.747 238.901 97.4942 230.372 90.44L231.712 88.8082C240.529 96.1009 245.357 101.617 247.373 106.688L245.413 107.473V107.467Z" fill="black"/>
<path d="M163.659 106.4C162.569 95.8686 169.188 79.1305 179.464 57.2399L181.374 58.1374C172.613 76.8021 164.654 95.5422 165.757 106.18L163.659 106.4Z" fill="black"/>
<path d="M183.815 59.6812C180.772 62.7878 179.012 66.7354 177.904 70.7144C176.808 74.7184 176.414 78.8668 176.589 82.9713C176.783 87.0695 177.541 91.1803 179.225 94.9271C180.872 98.6424 183.69 102.063 187.56 103.456C183.759 101.893 181.166 98.4165 179.714 94.7199C178.23 90.9857 177.666 86.9377 177.647 82.9462C177.647 78.9484 178.211 74.9381 179.426 71.1599C180.634 67.4069 182.494 63.7919 185.28 61.2L183.821 59.6749L183.815 59.6812Z" fill="black"/>
<path d="M209.457 100.18C203.928 95.5232 198.768 90.3957 194.31 84.672C189.857 78.9609 186.132 72.6221 183.558 65.7876C185.793 72.7414 189.237 79.306 193.458 85.3059C197.685 91.312 202.675 96.7658 208.054 101.768L209.451 100.18H209.457Z" fill="black"/>
<path d="M222.846 97.3494C218.262 96.2573 213.929 93.6528 211.029 89.6299C212.188 91.8014 213.759 93.7972 215.676 95.4415C217.586 97.0983 219.821 98.3975 222.188 99.3577L222.846 97.3494Z" fill="black"/>
<path d="M157.397 119.762C154.905 121.437 152.707 123.64 151.01 126.201C149.276 128.736 148.067 131.611 147.197 134.535C145.512 140.428 145.306 146.617 146.226 152.554C146.978 146.585 147.566 140.717 149.226 135.125C150.785 129.508 153.484 124.337 157.404 119.768L157.397 119.762Z" fill="black"/>
<path d="M154.297 146.39C150.834 150.532 148.054 155.321 146.238 160.499L145.681 162.093L147.372 161.666C152.945 160.273 158.806 160.084 164.648 160.16C167.573 160.21 170.509 160.323 173.459 160.448C176.402 160.58 179.357 160.699 182.326 160.775C179.433 160.135 176.521 159.582 173.584 159.156C170.653 158.729 167.698 158.396 164.723 158.233C161.749 158.045 158.756 158.057 155.763 158.264C152.769 158.503 149.77 158.967 146.864 159.89L147.998 161.063C149.494 155.992 151.68 151.11 154.304 146.384L154.297 146.39Z" fill="black"/>
<path d="M147.014 165.815C146.238 171.896 146.144 178.128 147.19 184.266C147.703 187.335 148.567 190.348 149.726 193.266C150.972 196.14 152.562 198.908 154.648 201.28C156.758 203.609 159.187 205.667 161.918 207.18C162.563 207.613 163.301 207.889 163.99 208.247C164.685 208.592 165.38 208.931 166.119 209.176L168.28 210.016L170.496 210.675C176.42 212.238 182.313 213.839 188.33 215.094C194.335 216.355 200.535 217.033 206.753 216.556C212.946 216.104 219.176 214.391 224.549 211.077C225.833 210.167 227.229 209.408 228.406 208.366L231.907 205.222C233.923 202.837 236.058 200.546 237.636 197.86C239.459 195.337 240.705 192.488 242.095 189.739C242.853 188.389 243.26 186.89 243.829 185.465L245.426 181.147L245.232 181.072C242.583 186.588 239.941 192.105 236.284 196.919C234.643 199.467 232.489 201.575 230.479 203.778L227.073 206.671C225.945 207.644 224.605 208.316 223.391 209.157C218.319 212.219 212.539 214.002 206.584 214.585C200.629 215.163 194.548 214.811 188.531 213.958C182.526 213.054 176.533 211.742 170.709 209.979C164.886 208.291 159.663 204.801 155.994 200.151C152.262 195.525 149.989 189.852 148.786 183.959C147.509 178.059 147.227 171.946 147.233 165.827L147.021 165.815H147.014Z" fill="black"/>
<path d="M202.877 234.348L202.664 232.245C217.16 230.752 229.045 221.457 239.014 203.828L240.849 204.869C230.523 223.139 218.099 232.779 202.877 234.348Z" fill="black"/>
<path d="M190.215 254.714L189.119 252.906C197.197 247.98 201.449 242.149 201.418 236.037C201.374 228.851 195.319 221.301 184.354 214.786L185.431 212.966C197.222 219.976 203.478 227.947 203.528 236.024C203.566 242.921 198.963 249.379 190.221 254.714H190.215Z" fill="black"/>
<path d="M206.064 263.682H197.385V261.567H205.225L232.207 236.137L239.628 233.903L240.235 235.93L233.291 238.014L206.064 263.682Z" fill="black"/>
<path d="M212.25 286.276L211.781 285.88C206.539 281.449 202.219 275.142 198.568 266.594L200.509 265.76C203.916 273.73 207.898 279.655 212.67 283.847C216.853 282.046 221.781 277.044 226.496 271.872L228.055 273.297C222.144 279.774 217.291 284.424 212.826 286.056L212.257 286.263L212.25 286.276Z" fill="black"/>
<path d="M196.64 344.554L194.905 343.349C202.52 332.354 214.624 320.681 226.565 309.704L227.993 311.26C216.139 322.155 204.135 333.728 196.64 344.548V344.554Z" fill="black"/>
<path d="M166.921 463.164C161.573 456.079 150.615 452.225 142.18 451.704V449.596C151.26 450.154 162.869 454.29 168.599 461.89L166.921 463.164Z" fill="black"/>
<path d="M168.743 460.616L166.783 459.844C179.288 428.037 188.136 399.588 193.841 372.878C195.049 360.934 195.77 349.142 192.739 344.535L192.476 344.134L192.601 343.669C199.827 317.467 198.093 301.821 186.965 292.959L184.442 290.945L187.667 291.077C191.593 291.234 194.411 290.217 196.308 287.976C199.583 284.104 200.065 276.416 197.755 265.125C188.005 251.582 175.65 242.068 159.995 236.055L147.753 241.54L147.872 239.789C148.517 230.256 147.177 221.005 143.896 212.301L145.868 211.554C149.056 220.014 150.465 228.963 150.07 238.189L159.926 233.771L160.333 233.928C176.646 240.109 189.489 249.969 199.596 264.077L199.771 264.479C202.313 276.73 201.706 284.863 197.917 289.344C196.095 291.497 193.553 292.759 190.328 293.104C203.033 305.461 199.502 326.467 194.761 343.782C197.692 348.828 197.354 359.215 195.926 373.204C190.178 400.141 181.298 428.696 168.749 460.616H168.743Z" fill="black"/>
<path d="M184.886 291.277C178.561 290.844 172.243 290.637 165.919 290.468L161.178 290.355C159.6 290.286 157.953 290.418 156.645 290.123C155.267 289.828 153.965 289.187 152.913 288.259C151.936 287.367 150.89 285.968 149.869 284.819C148.88 283.608 147.659 282.434 146.976 281.299C146.256 280.094 145.881 278.7 145.868 277.288C145.805 274.119 145.799 270.949 145.68 267.786L145.386 258.285C145.211 255.115 145.11 251.946 144.866 248.783C144.628 251.952 144.522 255.121 144.346 258.285L144.052 267.786C143.933 270.956 143.927 274.125 143.864 277.288C143.833 279.045 144.309 280.822 145.192 282.347C146.156 283.934 147.271 284.945 148.26 286.2C149.356 287.399 150.189 288.579 151.554 289.821C152.888 290.964 154.522 291.773 156.244 292.081C158.047 292.394 159.594 292.175 161.166 292.2L165.906 292.087C172.231 291.917 178.549 291.71 184.873 291.277H184.886Z" fill="black"/>
<path d="M190.246 336.891C186.734 338.133 183.196 339.288 179.576 340.029C175.976 340.832 172.306 341.284 168.662 341.215C165.024 341.127 161.404 340.612 157.973 339.464C157.108 339.194 156.282 338.83 155.437 338.523C154.61 338.159 153.796 337.763 152.982 337.374C152.205 336.928 151.379 336.489 150.652 336.037C149.97 335.592 149.363 335.033 148.862 334.387C147.841 333.113 147.271 331.487 147.252 329.849L147.221 324.263C147.158 320.536 147.152 316.808 147.033 313.073L146.889 307.482C146.889 305.605 146.651 303.741 146.989 302.015C147.284 300.239 148.035 298.595 149.118 297.076C150.145 295.52 151.153 293.951 152.143 292.369C150.966 293.819 149.801 295.275 148.661 296.75C147.453 298.168 146.444 299.906 145.975 301.796C145.486 303.729 145.649 305.643 145.549 307.482L145.405 313.073C145.286 316.801 145.28 320.529 145.217 324.263L145.186 329.862C145.186 331.952 145.9 334.041 147.196 335.692C147.841 336.514 148.63 337.23 149.513 337.794C150.371 338.315 151.197 338.736 152.036 339.213C153.758 340.054 155.524 340.813 157.359 341.372C161.028 342.476 164.867 342.991 168.668 342.84C176.289 342.608 183.584 340.211 190.24 336.897L190.246 336.891Z" fill="black"/>
<path d="M215.908 199.077C214.524 199.077 213.403 198.544 212.733 197.546C211.03 195.023 213.321 191.816 216.358 189.758C217.855 188.747 219.446 188.069 220.842 187.85C222.652 187.574 224.098 188.076 224.912 189.281C225.651 190.373 225.676 191.753 224.987 193.172C223.603 196.027 219.471 198.833 216.315 199.065C216.177 199.071 216.039 199.077 215.908 199.077ZM221.806 189.883C221.612 189.883 221.399 189.902 221.168 189.94C220.084 190.109 218.763 190.68 217.542 191.509C215.407 192.958 213.678 195.174 214.48 196.36C214.593 196.529 214.931 197.038 216.164 196.95C218.6 196.774 222.032 194.446 223.096 192.243C223.629 191.138 223.284 190.624 223.171 190.454C222.915 190.065 222.458 189.877 221.813 189.877L221.806 189.883Z" fill="black"/>
<path d="M143.527 112.839C147.084 106.293 150.314 99.5844 153.432 92.8189C156.57 86.0659 159.469 79.2063 162.312 72.3278C165.105 65.4305 167.841 58.5081 170.415 51.523L174.278 41.0547L177.998 30.5236C176.363 33.8687 174.867 37.2828 173.32 40.6656L168.912 50.9205C165.981 57.7613 163.201 64.6523 160.364 71.5245L143.527 112.839Z" fill="black"/>
<path d="M251.857 161.208C247.537 164.936 243.911 169.511 241.638 174.639C244.55 169.832 248.582 165.915 253.141 162.884L251.857 161.208Z" fill="black"/>
<path d="M187.661 6.1853C186.997 4.05147 186.821 1.74191 187.385 -0.454679C187.93 -2.65755 189.182 -4.65958 190.741 -6.36665C189.063 -4.7851 187.629 -2.86466 186.884 -0.605307C186.12 1.64149 186.108 4.13306 186.646 6.45517L187.667 6.1853H187.661Z" fill="black"/>
</g>
<path d="M191.096 1047C194.089 1047 196.863 1045.74 198.754 1043.57C201.372 1045.6 204.108 1046.42 206.638 1045.88C208.523 1045.47 210.138 1044.35 211.347 1042.61C213.914 1044.56 216.713 1045.36 219.181 1044.73C220.477 1044.41 222.6 1043.45 224.009 1040.59C227.396 1041.97 229.726 1041.03 230.915 1040.24C233.858 1038.28 235.017 1034.05 234.096 1028.63C233.445 1024.77 231.692 1020.9 229.037 1017.45L223.57 1010.32C221.353 1007.42 219.588 1004.24 218.329 1000.86C215.342 992.826 213.276 985.633 212.042 978.931C216.087 974.964 216.876 966.31 214.547 951.95C214.497 951.649 214.472 951.348 214.478 951.053C214.991 927.769 220.452 898.812 232.187 857.164C233.163 853.7 234.134 850.888 235.236 848.334C245.506 824.485 246.075 793.024 237.033 749.299C236.175 745.138 235.737 740.739 235.737 736.207V720.461C235.737 718.509 236.006 716.626 236.539 714.863C238.78 707.445 239.532 692.564 240.327 676.818L240.534 672.764C240.665 670.178 241.285 667.611 242.368 665.126C267.134 608.516 272.845 542.43 259.344 468.713C259.157 467.671 258.987 466.604 258.856 465.55C254.742 432.431 249.05 395.447 238.048 372.27L234.234 374.084C244.98 396.721 250.597 433.285 254.667 466.071C254.804 467.207 254.986 468.349 255.193 469.472C268.543 542.349 262.926 607.606 238.499 663.425C237.209 666.381 236.47 669.444 236.313 672.538L236.106 676.598C235.361 691.397 234.591 706.704 232.493 713.633C231.842 715.792 231.51 718.082 231.51 720.455V736.201C231.51 741.015 231.974 745.709 232.894 750.153C241.755 792.98 241.266 823.644 231.36 846.652C230.183 849.388 229.156 852.363 228.129 856.009C216.288 898.015 210.777 927.298 210.257 950.959C210.245 951.517 210.289 952.076 210.383 952.628C213.232 970.188 210.458 975.027 208.554 976.351L207.446 977.117L207.678 978.448C208.924 985.759 211.115 993.573 214.378 1002.33C215.78 1006.11 217.753 1009.66 220.226 1012.89L225.693 1020.02C227.928 1022.94 229.394 1026.16 229.938 1029.34C230.671 1033.63 229.669 1036 228.586 1036.71C227.233 1037.62 225.129 1036.54 223.996 1035.82L221.535 1034.24L220.815 1037.08C220.458 1038.48 219.713 1040.23 218.16 1040.62C216.538 1041.04 214.29 1039.93 212.305 1037.74L209.957 1035.16L208.767 1038.45C208.291 1039.75 207.389 1041.38 205.768 1041.73C204.108 1042.08 201.967 1041.04 199.875 1038.87L197.752 1036.66L196.45 1039.44C195.354 1041.77 192.824 1043.07 190.144 1042.68C186.487 1042.14 183.864 1038.79 183.125 1033.73L181.265 1021.05L178.96 1033.65C178.096 1038.39 175.692 1041.51 172.185 1042.43C168.873 1043.3 165.128 1042.06 162.855 1039.34C160.45 1036.47 160.194 1032.6 162.116 1028.44L162.661 1027.27L161.866 1026.25C160.889 1025 157.914 1021.19 163.375 1013.37C164.821 1011.3 165.879 1008.97 166.518 1006.46C167.338 1003.24 167.896 999.353 168.228 994.589C168.39 989.499 168.641 983.882 169.705 980.544C170.35 978.504 170.638 976.809 170.607 975.209C170.557 972.592 170.238 970.402 169.643 968.506C169.33 967.508 168.804 966.68 168.378 966.015C165.635 961.716 166.412 956.268 170.826 948.881C171.684 947.45 172.304 946.126 172.717 944.84C179.724 923.188 180.764 895.787 175.986 858.595C175.604 855.62 175.059 852.614 174.37 849.652C173.675 846.671 172.962 843.69 172.248 840.728C166.449 816.584 160.97 793.777 168.027 776.6C169.098 773.989 169.749 771.315 170.194 769.275L173.463 754.37C175.679 744.266 175.491 733.917 172.93 724.44C169.524 711.838 167.733 699.16 167.608 686.753C167.589 685.184 167.345 683.621 166.881 682.102C161.909 665.948 160.369 645.331 162.172 619.073C162.373 616.098 162.279 613.173 161.884 610.393L160.964 603.916C155.303 564.12 149.454 522.969 154.12 487.679L149.937 487.127C145.196 522.988 151.089 564.434 156.787 604.512L157.708 610.989C158.058 613.474 158.146 616.098 157.958 618.784C156.123 645.57 157.72 666.695 162.842 683.351C163.193 684.481 163.375 685.636 163.387 686.797C163.512 699.562 165.353 712.597 168.854 725.545C171.24 734.362 171.409 744.015 169.336 753.46L166.067 768.366C165.66 770.236 165.065 772.677 164.12 774.987C156.537 793.432 162.172 816.885 168.14 841.713C168.848 844.669 169.561 847.637 170.256 850.612C170.914 853.436 171.434 856.298 171.797 859.135C176.5 895.68 175.51 922.497 168.703 943.534C168.384 944.52 167.896 945.555 167.207 946.71C163.851 952.327 159.956 960.668 164.821 968.293C165.14 968.795 165.472 969.316 165.616 969.78C166.092 971.287 166.343 973.088 166.387 975.297C166.412 976.42 166.186 977.682 165.679 979.263C164.452 983.117 164.182 988.84 164.013 994.376C163.7 998.8 163.18 1002.44 162.429 1005.42C161.916 1007.44 161.07 1009.29 159.912 1010.95C155.435 1017.36 154.727 1023.03 157.795 1027.81C155.748 1033.05 156.393 1038.19 159.611 1042.05C162.911 1046.01 168.39 1047.8 173.25 1046.52C176.493 1045.66 179.13 1043.56 180.914 1040.51C183.081 1044.48 186.481 1046.4 189.518 1046.85C190.05 1046.93 190.576 1046.97 191.096 1046.97V1047Z" fill="#888888"/>
<path d="M150.15 488.814C159.731 488.814 164.121 477.756 166.888 467.953C167.709 465.041 169.049 462.198 170.877 459.512L185.01 438.707L209.275 405.77C212.212 401.779 215.693 398.246 219.626 395.252C242.056 378.194 245.162 353.146 229.394 316.432C227.704 312.491 226.84 308.361 226.84 304.162V276.912C226.84 274.421 227.472 271.973 228.662 269.839C236.283 256.164 241.943 237.261 246.471 210.343L246.514 210.092L246.496 209.835C244.736 185.948 247.316 170.829 254.611 162.244L251.399 159.501C243.252 169.085 240.428 184.63 242.263 209.891C237.823 236.181 232.325 254.576 224.974 267.774C223.433 270.536 222.619 273.699 222.619 276.912V304.162C222.619 308.938 223.596 313.627 225.512 318.101C240.39 352.739 237.704 376.186 217.071 391.875C212.819 395.108 209.05 398.936 205.875 403.254L181.566 436.253L167.389 457.121C165.304 460.19 163.77 463.447 162.824 466.798C159.199 479.676 155.009 485.155 149.198 484.528L149.073 484.515L141.083 484.578V488.808L148.879 488.745C149.311 488.789 149.731 488.808 150.144 488.808L150.15 488.814Z" fill="#888888"/>
<path d="M383.75 532.244C384.207 532.244 384.664 532.156 385.109 531.968C386.443 531.403 387.275 530.104 387.238 528.654C386.931 517.653 386.793 505.145 388.027 495.756C388.283 493.81 389.022 491.802 390.225 489.781C394.871 481.986 395.291 474.336 391.515 466.384C391.007 465.317 390.701 464.344 390.588 463.416L386.167 427.749C385.66 423.676 384.658 419.672 383.18 415.85L375.34 395.516C375.077 394.832 374.852 394.129 374.67 393.438L353.43 311.487C348.038 293.945 339.209 277.791 327.174 263.375C326.56 262.647 326.059 261.856 325.683 261.022L311.563 229.818C307.236 211.988 302.896 194.929 297.486 182.126C297.092 181.191 296.916 180.219 296.966 179.214C299.653 126.929 284.161 99.2961 248.211 92.2419C239.495 90.5286 231.586 87.5851 224.71 83.4806L185.361 60.0022C182.38 58.2261 180.526 54.9563 180.526 51.4794V29.1684H176.306V51.4794C176.306 56.4375 178.948 61.0942 183.2 63.636L222.55 87.1144C229.845 91.4699 238.205 94.5891 247.397 96.3966C280.898 102.968 295.313 129.214 292.752 179.001C292.671 180.645 292.952 182.252 293.597 183.777C298.901 196.335 303.203 213.287 307.505 231.01L307.63 231.387L321.832 262.773C322.371 263.953 323.072 265.07 323.93 266.093C335.608 280.069 344.162 295.734 349.36 312.642L370.575 394.499C370.794 395.346 371.07 396.206 371.395 397.047L379.235 417.375C380.588 420.877 381.508 424.542 381.971 428.27L386.392 463.937C386.561 465.324 386.987 466.717 387.695 468.204C390.907 474.963 390.569 480.951 386.593 487.616C385.096 490.132 384.163 492.687 383.838 495.203C382.635 504.341 382.692 516.184 382.961 526.878L382.253 526.144C379.749 523.558 378.171 520.157 377.814 516.567L375.96 497.915C375.804 496.352 375.334 494.758 374.557 493.176C372.854 489.687 371.389 485.463 370.074 480.26C369.642 478.547 368.79 476.997 367.613 475.76C365.378 473.413 362.578 471.047 358.696 471.129L356.824 471.179L356.648 473.049C355.377 486.649 352.528 494.802 347.932 497.965C347.343 498.367 346.623 498.254 346.222 497.682C344.638 495.442 344.187 491.469 344.889 485.877C344.957 485.325 345.095 484.735 345.327 483.963C346.786 479.168 347.481 473.175 347.519 465.098C347.531 462.75 347.306 460.535 346.867 458.502C345.571 452.533 346.748 447.594 350.681 442.466C358.032 431.32 357.544 420.821 349.241 409.304C328.852 380.805 311.381 355.864 304.136 339.258L303.905 338.85C292.827 323.775 284.386 301.282 277.342 268.051L277.235 267.555L276.916 267.16C263.828 250.886 253.834 232.642 247.203 212.935L243.208 214.285C249.946 234.305 260.078 252.85 273.321 269.419C280.541 303.303 288.901 325.457 300.373 341.16C307.837 358.142 325.377 383.19 345.828 411.771C353.073 421.812 353.511 430.517 347.262 440.006C342.653 446 341.194 452.2 342.753 459.393C343.129 461.125 343.317 463.033 343.311 465.072C343.279 472.729 342.641 478.34 341.307 482.727C341 483.731 340.812 484.566 340.712 485.35C339.867 492.122 340.549 496.954 342.791 500.124C344.525 502.584 347.838 503.168 350.336 501.448C355.816 497.67 359.109 489.455 360.637 475.679C361.821 476.137 363.061 477.097 364.576 478.685C365.252 479.394 365.747 480.304 366.004 481.308C367.394 486.794 368.959 491.287 370.788 495.04C371.339 496.17 371.677 497.281 371.783 498.341L373.637 516.994C374.088 521.531 376.079 525.83 379.248 529.1L381.283 531.196C381.953 531.887 382.848 532.257 383.769 532.257L383.75 532.244Z" fill="#888888"/>
<path d="M141.527 52.6025H146.374C149.793 52.6025 153.106 51.7051 155.948 50.0168C161.985 46.4207 168.303 41.4313 175.842 34.3143C182.023 28.484 186.062 20.9591 187.208 13.1267C187.439 11.5702 187.577 9.97611 187.634 8.38829C192.706 5.14989 195.592 -0.0654442 196.225 -7.13847C199.425 -13.5713 202.042 -20.5565 200.076 -28.0751C199.575 -29.9767 198.066 -31.4642 196.131 -31.9662C195.104 -32.2298 194.065 -32.1984 193.119 -31.8909C193.313 -34.9034 193.407 -37.8405 193.401 -40.6647C193.294 -67.1807 175.373 -89.404 149.824 -94.7071C147.238 -95.2406 144.527 -95.6799 141.759 -96L141.271 -91.8014C143.913 -91.4938 146.505 -91.0796 148.96 -90.565C172.542 -85.676 189.074 -65.1473 189.174 -40.6459C189.193 -35.8197 188.892 -30.6608 188.291 -25.3137L192.399 -24.4351C192.862 -25.9036 193.407 -26.9706 194.002 -27.5981C194.359 -27.9747 194.828 -27.9308 195.073 -27.868C195.248 -27.8241 195.824 -27.6295 195.987 -27.0019C197.546 -21.046 195.624 -15.3663 192.261 -8.66353L192.073 -8.29325L192.042 -7.87903C191.56 -1.52774 189.099 2.78385 184.521 5.31934L183.438 5.91556V7.15192C183.419 8.94685 183.282 10.7481 183.025 12.5053C182.01 19.3963 178.429 26.0426 172.937 31.2266C165.623 38.1239 159.536 42.9375 153.776 46.3705C151.584 47.6759 149.023 48.3662 146.355 48.3662H141.508V52.5963L141.527 52.6025Z" fill="#888888"/>
<path d="M91.9639 1047C88.9707 1047 86.1967 1045.74 84.3056 1043.57C81.6881 1045.6 78.9517 1046.42 76.4219 1045.88C74.5371 1045.47 72.9215 1044.35 71.713 1042.61C69.1456 1044.56 66.3465 1045.36 63.8793 1044.73C62.5831 1044.41 60.4604 1043.45 59.0514 1040.59C55.6637 1041.97 53.3343 1041.03 52.1446 1040.24C49.2015 1038.28 48.043 1034.05 48.9635 1028.63C49.6148 1024.77 51.3681 1020.9 54.0231 1017.45L59.4897 1010.32C61.7065 1007.42 63.4723 1004.24 64.731 1000.86C67.7179 992.826 69.7843 985.633 71.0179 978.931C66.9727 974.964 66.1837 966.31 68.5131 951.95C68.5632 951.649 68.5883 951.348 68.582 951.053C68.0685 927.769 62.6082 898.812 50.8734 857.164C49.8965 853.7 48.9259 850.888 47.8238 848.334C37.5543 824.485 36.9845 793.024 46.0267 749.299C46.8846 745.138 47.3229 740.739 47.3229 736.207V720.461C47.3229 718.509 47.0536 716.626 46.5214 714.863C44.2796 707.445 43.5282 692.564 42.7329 676.818L42.5263 672.764C42.3948 670.178 41.7749 667.611 40.6916 665.126C15.9258 608.516 10.2149 542.43 23.7156 468.713C23.9034 467.671 24.0725 466.604 24.204 465.55C28.3181 432.431 34.0101 395.447 45.0123 372.27L48.8257 374.084C38.0803 396.721 32.4634 433.285 28.3932 466.071C28.2554 467.207 28.0739 468.349 27.8672 469.472C14.5169 542.349 20.1338 607.606 44.5614 663.425C45.8513 666.381 46.5903 669.444 46.7468 672.538L46.9534 676.598C47.6986 691.397 48.4688 706.704 50.5666 713.633C51.2178 715.792 51.5497 718.082 51.5497 720.455V736.201C51.5497 741.015 51.0863 745.709 50.1658 750.153C41.3052 792.98 41.7936 823.644 51.7 846.652C52.8772 849.388 53.9041 852.363 54.9311 856.009C66.7723 898.015 72.2828 927.298 72.8025 950.959C72.8151 951.517 72.7712 952.076 72.6773 952.628C69.8281 970.188 72.6021 975.027 74.5058 976.351L75.6141 977.117L75.3824 978.448C74.1363 985.759 71.9447 993.573 68.6822 1002.33C67.2795 1006.11 65.307 1009.66 62.8336 1012.89L57.367 1020.02C55.1315 1022.94 53.6662 1026.16 53.1214 1029.34C52.3888 1033.63 53.3907 1036 54.474 1036.71C55.8265 1037.62 57.9305 1036.54 59.0639 1035.82L61.5249 1034.24L62.245 1037.08C62.6019 1038.48 63.3471 1040.23 64.9 1040.62C66.5219 1041.04 68.7699 1039.93 70.7549 1037.74L73.1031 1035.16L74.2929 1038.45C74.7688 1039.75 75.6705 1041.38 77.2923 1041.73C78.9517 1042.08 81.0933 1041.04 83.1847 1038.87L85.3075 1036.66L86.61 1039.44C87.7058 1041.77 90.2356 1043.07 92.9157 1042.68C96.5727 1042.14 99.1964 1038.79 99.9353 1033.73L101.795 1021.05L104.099 1033.65C104.964 1038.39 107.368 1041.51 110.875 1042.43C114.187 1043.3 117.932 1042.06 120.205 1039.34C122.61 1036.47 122.866 1032.6 120.944 1028.44L120.399 1027.27L121.194 1026.25C122.171 1025 125.146 1021.19 119.685 1013.37C118.239 1011.3 117.181 1008.97 116.542 1006.46C115.722 1003.24 115.164 999.353 114.832 994.589C114.67 989.499 114.419 983.882 113.355 980.544C112.71 978.504 112.422 976.809 112.453 975.209C112.503 972.592 112.822 970.402 113.417 968.506C113.73 967.508 114.256 966.68 114.682 966.015C117.425 961.716 116.648 956.268 112.234 948.881C111.376 947.45 110.756 946.126 110.343 944.84C103.336 923.188 102.296 895.787 107.074 858.595C107.456 855.62 108.001 852.614 108.689 849.652C109.384 846.671 110.098 843.69 110.812 840.728C116.611 816.584 122.09 793.777 115.033 776.6C113.962 773.989 113.311 771.315 112.866 769.275L109.597 754.37C107.381 744.266 107.569 733.917 110.13 724.44C113.536 711.838 115.327 699.16 115.452 686.753C115.471 685.184 115.715 683.621 116.179 682.102C121.151 665.948 122.691 645.331 120.888 619.073C120.687 616.098 120.781 613.173 121.176 610.393L122.096 603.916C127.757 564.12 133.605 522.969 128.94 487.679L133.123 487.127C137.864 522.988 131.971 564.434 126.273 604.512L125.352 610.989C125.002 613.474 124.914 616.098 125.102 618.784C126.937 645.57 125.34 666.695 120.218 683.351C119.867 684.481 119.685 685.636 119.673 686.797C119.548 699.562 117.707 712.597 114.206 725.545C111.82 734.362 111.651 744.015 113.724 753.46L116.993 768.366C117.4 770.236 117.995 772.677 118.94 774.987C126.523 793.432 120.888 816.885 114.92 841.713C114.212 844.669 113.499 847.637 112.803 850.612C112.146 853.436 111.626 856.298 111.263 859.135C106.56 895.68 107.55 922.497 114.356 943.534C114.676 944.52 115.164 945.555 115.853 946.71C119.209 952.327 123.104 960.668 118.239 968.293C117.919 968.795 117.588 969.316 117.444 969.78C116.968 971.287 116.717 973.088 116.673 975.297C116.648 976.42 116.874 977.682 117.381 979.263C118.608 983.117 118.878 988.84 119.047 994.376C119.36 998.8 119.879 1002.44 120.631 1005.42C121.144 1007.44 121.99 1009.29 123.148 1010.95C127.625 1017.36 128.333 1023.03 125.265 1027.81C127.312 1033.05 126.667 1038.19 123.449 1042.05C120.149 1046.01 114.67 1047.8 109.81 1046.52C106.567 1045.66 103.93 1043.56 102.146 1040.51C99.9791 1044.48 96.5789 1046.4 93.5419 1046.85C93.0096 1046.93 92.4837 1046.97 91.9639 1046.97V1047Z" fill="#888888"/>
<path d="M132.905 488.814C123.324 488.814 118.934 477.756 116.167 467.953C115.346 465.041 114.006 462.198 112.178 459.512L98.0447 438.707L73.7798 405.771C70.843 401.779 67.3614 398.246 63.4289 395.252C40.9988 378.194 37.8929 353.147 53.6604 316.432C55.3511 312.491 56.2152 308.361 56.2152 304.163V276.912C56.2152 274.421 55.5828 271.973 54.393 269.839C46.7723 256.164 41.1116 237.261 36.5842 210.343L36.5404 210.092L36.5591 209.835C38.3187 185.948 35.7389 170.829 28.4438 162.244L31.6561 159.501C39.8028 169.085 42.6269 184.63 40.7922 209.891C45.2319 236.181 50.7298 254.576 58.0813 267.774C59.6217 270.536 60.4357 273.699 60.4357 276.912V304.163C60.4357 308.939 59.4589 313.627 57.5428 318.102C42.6645 352.739 45.3509 376.186 65.9838 391.876C70.2356 395.108 74.0053 398.936 77.18 403.254L101.489 436.253L115.666 457.121C117.751 460.19 119.285 463.447 120.231 466.798C123.856 479.676 128.045 485.155 133.856 484.528L133.982 484.515L141.095 484.578V488.808L134.176 488.745C133.744 488.789 133.324 488.808 132.911 488.808L132.905 488.814Z" fill="#888888"/>
<path d="M-100.689 532.244C-101.147 532.244 -101.604 532.156 -102.048 531.968C-103.382 531.403 -104.215 530.104 -104.177 528.654C-103.87 517.653 -103.733 505.145 -104.966 495.756C-105.223 493.81 -105.962 491.802 -107.164 489.781C-111.811 481.986 -112.23 474.336 -108.454 466.384C-107.947 465.317 -107.64 464.344 -107.527 463.416L-103.107 427.749C-102.599 423.676 -101.597 419.672 -100.12 415.85L-92.2797 395.516C-92.0167 394.832 -91.7913 394.129 -91.6097 393.438L-70.3694 311.487C-64.9779 293.945 -56.1486 277.791 -44.1133 263.375C-43.4996 262.647 -42.9987 261.856 -42.6229 261.022L-28.5024 229.818C-24.1754 211.988 -19.8359 194.929 -14.4256 182.126C-14.0311 181.191 -13.8558 180.219 -13.9059 179.214C-16.5923 126.929 -1.10033 99.2961 34.8492 92.2419C43.5657 90.5286 51.4745 87.5851 58.35 83.4806L97.6998 60.0022C100.68 58.2261 102.534 54.9563 102.534 51.4794V29.1684H106.754V51.4794C106.754 56.4375 104.112 61.0942 99.8601 63.636L60.5104 87.1144C53.2153 91.4699 44.8557 94.5891 35.6632 96.3966C2.16211 102.968 -12.2528 129.214 -9.69165 179.001C-9.61025 180.645 -9.89204 182.252 -10.537 183.777C-15.8408 196.335 -20.1427 213.287 -24.4447 231.01L-24.5699 231.387L-38.7719 262.773C-39.3104 263.953 -40.0117 265.07 -40.8696 266.093C-52.548 280.069 -61.1018 295.734 -66.2991 312.642L-87.5144 394.499C-87.7336 395.346 -88.0091 396.206 -88.3347 397.047L-96.1746 417.375C-97.5272 420.877 -98.4477 424.542 -98.9111 428.27L-103.332 463.937C-103.501 465.324 -103.927 466.717 -104.634 468.204C-107.847 474.963 -107.509 480.951 -103.532 487.616C-102.036 490.132 -101.103 492.687 -100.777 495.203C-99.5748 504.341 -99.6312 516.184 -99.9004 526.878L-99.1929 526.144C-96.6881 523.558 -95.1101 520.157 -94.7532 516.567L-92.8997 497.915C-92.7431 496.352 -92.2735 494.758 -91.497 493.176C-89.7938 489.687 -88.3285 485.463 -87.0135 480.26C-86.5814 478.547 -85.7298 476.997 -84.5526 475.76C-82.3171 473.413 -79.518 471.047 -75.6356 471.129L-73.7633 471.179L-73.588 473.049C-72.3168 486.649 -69.4677 494.802 -64.8714 497.965C-64.2828 498.367 -63.5627 498.254 -63.1619 497.682C-61.5777 495.442 -61.1268 491.469 -61.8282 485.877C-61.897 485.325 -62.0348 484.735 -62.2665 483.963C-63.7255 479.168 -64.4206 473.175 -64.4581 465.098C-64.4707 462.75 -64.2452 460.535 -63.8069 458.502C-62.5107 452.533 -63.6879 447.594 -67.6204 442.466C-74.9719 431.32 -74.4834 420.821 -66.1802 409.304C-45.7915 380.805 -28.3208 355.864 -21.0758 339.258L-20.8441 338.85C-9.7668 323.775 -1.32576 301.282 5.71886 268.051L5.82532 267.555L6.14468 267.16C19.232 250.886 29.226 232.642 35.8573 212.935L39.8524 214.285C33.1146 234.305 22.9829 252.85 9.739 269.419C2.51904 303.303 -5.84059 325.457 -17.3124 341.16C-24.7765 358.142 -42.3161 383.19 -62.7674 411.771C-70.0125 421.812 -70.4508 430.517 -64.2014 440.006C-59.5927 446 -58.1336 452.2 -59.6928 459.393C-60.0686 461.125 -60.2564 463.033 -60.2502 465.072C-60.2188 472.729 -59.5801 478.34 -58.2464 482.727C-57.9395 483.731 -57.7517 484.566 -57.6515 485.35C-56.8061 492.122 -57.4887 496.954 -59.7304 500.124C-61.465 502.584 -64.7775 503.168 -67.276 501.448C-72.7552 497.67 -76.0489 489.455 -77.5768 475.679C-78.7603 476.137 -80.0002 477.097 -81.5155 478.685C-82.1918 479.394 -82.6865 480.304 -82.9432 481.308C-84.3334 486.794 -85.8989 491.287 -87.7273 495.04C-88.2784 496.17 -88.6165 497.281 -88.723 498.341L-90.5765 516.994C-91.0274 521.531 -93.0186 525.83 -96.1871 529.1L-98.2223 531.196C-98.8923 531.887 -99.7877 532.257 -100.708 532.257L-100.689 532.244Z" fill="#888888"/>
<path d="M141.527 52.6025H136.68C133.261 52.6025 129.948 51.7051 127.106 50.0168C121.069 46.4207 114.751 41.4313 107.212 34.3143C101.031 28.484 96.9921 20.9591 95.8462 13.1267C95.6145 11.5702 95.4768 9.97611 95.4204 8.38829C90.3483 5.14989 87.4615 -0.0654442 86.8291 -7.13847C83.6293 -13.5713 81.0118 -20.5565 82.978 -28.0751C83.479 -29.9767 84.9881 -31.4642 86.923 -31.9662C87.95 -32.2298 88.9895 -32.1984 89.935 -31.8909C89.7409 -34.9034 89.6469 -37.8405 89.6532 -40.6647C89.7597 -67.1807 107.681 -89.404 133.23 -94.7071C135.803 -95.2406 138.521 -95.6799 141.283 -96L141.771 -91.8014C139.128 -91.4938 136.536 -91.0796 134.081 -90.565C110.499 -85.676 93.9677 -65.1473 93.8675 -40.6459C93.8487 -35.8197 94.1493 -30.6608 94.7504 -25.3137L90.6426 -24.4351C90.1792 -25.9036 89.6344 -26.9706 89.0395 -27.5981C88.6826 -27.9747 88.213 -27.9308 87.9688 -27.868C87.7934 -27.8241 87.2173 -27.6295 87.0545 -27.0019C85.4953 -21.046 87.4177 -15.3663 90.7803 -8.66353L90.9682 -8.29325L90.9995 -7.87903C91.4817 -1.52774 93.9426 2.78385 98.52 5.31934L99.6033 5.91556V7.15192C99.6221 8.94685 99.7599 10.7481 100.017 12.5053C101.031 19.3963 104.613 26.0426 110.105 31.2266C117.418 38.1239 123.505 42.9375 129.266 46.3705C131.458 47.6759 134.019 48.3662 136.686 48.3662H141.533V52.5963L141.527 52.6025Z" fill="#888888"/>
</g>
<defs>
<linearGradient id="paint0_linear_42_1192" x1="154" y1="9" x2="154" y2="407" gradientUnits="userSpaceOnUse">
<stop stop-color="white"/>
<stop offset="1"/>
</linearGradient>
</defs>
</svg>
